<?xml version="1.0" standalone="no"?>
<!DOCTYPE svg PUBLIC "-//W3C//DTD SVG 20010904//EN"
 "http://www.w3.org/TR/2001/REC-SVG-20010904/DTD/svg10.dtd">
<svg version="1.0" xmlns="http://www.w3.org/2000/svg"
 width="600.000000pt" height="600.000000pt" viewBox="0 0 600.000000 600.000000"
 preserveAspectRatio="xMidYMid meet">
<g transform="translate(0.000000,600.000000) scale(0.100000,-0.100000)"
fill="#000000" stroke="none">
<path d="M2981 5330 c-10 -16 -21 -27 -26 -22 -5 4 -6 3 -3 -3 7 -13 -27 -77
-36 -67 -4 4 -6 2 -4 -4 5 -15 -24 -84 -36 -84 -5 0 -6 -3 -3 -7 4 -3 -4 -21
-18 -38 -13 -18 -27 -44 -31 -59 -4 -15 -13 -30 -20 -33 -8 -3 -11 -9 -8 -15
3 -5 -3 -19 -14 -31 -12 -12 -37 -55 -56 -94 -20 -40 -39 -73 -42 -73 -3 0 -2
5 2 12 4 7 3 8 -5 4 -6 -4 -9 -11 -6 -15 6 -10 -91 -198 -116 -226 -10 -11
-18 -23 -18 -28 0 -4 -8 -21 -16 -38 -14 -26 -18 -29 -32 -17 -15 12 -15 11
-2 -10 12 -19 12 -24 0 -31 -8 -5 -10 -14 -6 -21 5 -9 4 -11 -3 -6 -8 5 -12
-1 -12 -14 0 -12 -4 -18 -10 -15 -6 4 -10 3 -9 -2 3 -20 -2 -34 -11 -28 -6 4
-10 3 -9 -2 4 -17 -13 -63 -22 -57 -5 3 -6 -3 -2 -12 4 -12 3 -15 -5 -10 -8 5
-10 2 -6 -8 3 -9 2 -16 -3 -16 -9 0 -53 -70 -55 -87 0 -5 -12 -25 -24 -45 -13
-21 -24 -40 -24 -42 0 -15 -68 -115 -74 -109 -4 4 -4 -1 0 -11 4 -12 4 -17 -2
-13 -6 3 -11 -3 -11 -14 -1 -10 -11 -32 -22 -48 -11 -16 -25 -39 -31 -52 -6
-13 -29 -55 -51 -94 -22 -38 -42 -78 -46 -87 -3 -10 -9 -18 -14 -18 -5 0 -5
-7 -2 -17 5 -12 3 -14 -7 -8 -8 5 -11 4 -6 -3 3 -6 1 -14 -5 -17 -6 -4 -26
-38 -44 -76 -19 -39 -36 -64 -39 -57 -3 7 -3 3 0 -9 3 -13 -1 -25 -9 -30 -8
-4 -30 -40 -49 -80 -20 -40 -39 -69 -42 -65 -4 4 -6 3 -5 -3 4 -12 -27 -79
-53 -117 -11 -16 -16 -33 -12 -39 4 -8 3 -9 -4 -5 -7 4 -12 1 -12 -8 0 -9 -4
-16 -9 -16 -5 0 -12 -14 -16 -30 -4 -17 -11 -28 -16 -24 -5 3 -9 -4 -9 -16 0
-12 -4 -19 -8 -16 -13 8 -12 -26 0 -51 6 -13 17 -23 25 -23 7 0 13 -4 13 -10
0 -5 5 -10 12 -10 6 0 0 13 -15 28 l-27 28 73 130 c40 71 131 235 202 364 71
129 239 435 375 680 415 748 628 1134 641 1163 7 15 15 27 18 27 4 0 35 -53
71 -117 35 -65 107 -197 160 -293 53 -96 113 -204 132 -240 108 -197 282 -507
291 -518 8 -10 -24 -12 -163 -10 l-173 3 -124 225 c-68 124 -138 253 -156 288
-17 34 -34 62 -37 62 -6 0 -15 -17 -393 -695 -131 -236 -241 -434 -244 -439
-4 -5 18 9 48 32 62 46 264 154 389 207 396 169 872 259 1273 240 94 -4 147
-3 147 3 0 6 -24 14 -52 18 -57 8 -383 8 -396 0 -5 -3 -58 -6 -120 -7 -61 -2
-109 -6 -106 -10 2 -4 -11 -9 -29 -12 -17 -2 -68 -12 -112 -20 -44 -9 -104
-19 -134 -21 -30 -3 -57 -9 -60 -12 -3 -4 10 -4 29 0 25 4 31 3 20 -4 -8 -6
-29 -9 -45 -8 -17 1 -37 -2 -44 -6 -8 -5 -25 -10 -39 -12 -14 -1 -35 -7 -46
-13 -18 -9 -131 -53 -146 -56 -3 -1 -12 -4 -20 -8 -8 -3 -33 -11 -55 -17 -51
-15 -194 -82 -305 -142 -30 -17 -64 -34 -77 -39 -20 -8 -21 -6 -11 22 5 16 14
29 20 29 5 0 7 4 4 9 -3 5 1 14 9 21 8 7 15 17 15 22 0 5 9 21 20 35 11 14 20
31 20 37 0 6 -5 4 -10 -4 -7 -10 -10 -11 -10 -2 0 7 7 15 15 18 8 4 12 10 9
15 -3 5 -1 9 4 9 14 0 53 70 46 81 -3 5 5 13 17 17 15 6 19 11 11 16 -7 4 -10
12 -6 17 3 5 9 7 14 4 5 -3 11 8 15 25 4 17 11 28 16 24 5 -3 9 2 9 11 0 10 5
13 12 9 6 -4 8 -3 5 4 -10 15 3 43 16 35 5 -3 7 -1 3 5 -3 6 5 32 18 58 14 27
22 52 20 56 -3 4 -1 8 4 8 12 0 42 45 47 69 2 10 15 31 29 46 14 15 26 32 26
37 0 5 8 20 17 35 10 14 18 32 19 39 3 21 50 84 58 77 4 -4 4 0 0 10 -3 9 -2
17 4 17 5 0 13 11 16 25 7 27 26 34 26 10 0 -8 9 -23 20 -32 11 -10 20 -23 20
-30 0 -19 33 -83 42 -83 5 0 6 -4 3 -10 -3 -5 -1 -10 4 -10 6 0 11 -9 11 -20
0 -10 8 -24 18 -29 9 -6 13 -11 9 -11 -5 0 1 -13 13 -30 11 -16 30 -48 41 -72
11 -24 31 -61 45 -83 14 -22 32 -57 41 -78 10 -22 22 -36 29 -33 6 2 15 2 19
-2 9 -10 334 -9 329 0 -3 5 0 8 5 8 21 0 10 32 -42 133 -69 131 -80 151 -90
158 -5 3 -8 8 -8 10 2 16 -13 48 -21 43 -5 -3 -8 0 -6 8 1 7 -7 27 -20 45 -12
17 -22 33 -22 36 0 7 -92 171 -99 177 -3 3 -7 12 -9 20 -2 8 -10 22 -18 31 -8
8 -14 20 -14 25 0 5 -13 29 -29 53 -17 25 -28 48 -25 53 3 4 0 8 -7 8 -7 0
-10 3 -6 6 3 3 -2 14 -11 25 -9 10 -37 58 -62 106 -25 48 -49 91 -54 94 -5 4
-5 12 -1 19 5 8 4 11 -2 7 -9 -6 -58 81 -50 90 6 5 -54 73 -65 73 -5 0 -16
-13 -27 -30z"/>
<path d="M3008 5243 c-12 -15 -87 -148 -226 -403 -13 -25 -36 -65 -51 -90 -24
-41 -44 -79 -132 -245 -17 -33 -48 -87 -69 -120 -20 -33 -64 -109 -97 -170
-88 -160 -108 -196 -188 -340 -97 -175 -222 -402 -275 -500 -24 -44 -63 -115
-87 -159 -23 -43 -43 -81 -43 -83 0 -3 -9 -18 -21 -34 -11 -16 -18 -29 -16
-29 3 0 33 14 67 31 128 63 376 139 455 139 18 0 52 25 118 87 113 106 232
197 247 188 6 -4 9 -1 8 6 -3 14 217 158 328 215 72 37 89 51 59 51 -8 0 -11
-5 -8 -10 4 -6 -1 -8 -11 -4 -9 4 -15 3 -12 -2 7 -10 -38 -25 -76 -25 -15 1
-25 -3 -22 -8 3 -5 10 -5 16 -2 6 4 9 1 7 -5 -3 -7 -7 -11 -10 -9 -3 2 -13 -5
-23 -15 -10 -9 -21 -15 -26 -12 -4 3 -14 -2 -21 -11 -18 -22 -68 -46 -80 -39
-5 4 -8 2 -7 -3 4 -14 -43 -53 -55 -45 -6 3 -7 1 -3 -5 4 -7 3 -12 -3 -12 -5
0 -11 3 -14 8 -2 4 -2 2 -1 -5 2 -10 -20 -23 -46 -28 -3 0 -20 -15 -39 -33
-18 -17 -38 -29 -44 -25 -6 4 -7 1 -3 -6 5 -8 0 -14 -13 -18 -12 -3 -21 -9
-21 -14 0 -5 -5 -8 -11 -7 -6 2 -16 -6 -22 -17 -17 -29 -30 -35 -44 -24 -9 8
-11 6 -8 -11 3 -13 -2 -23 -13 -27 -9 -4 -34 -26 -56 -50 -21 -24 -44 -43 -51
-43 -7 0 -15 -5 -17 -11 -2 -6 -25 -11 -51 -12 -26 0 -47 -5 -47 -11 0 -5 -3
-7 -6 -3 -3 3 -23 -1 -44 -8 -21 -7 -40 -11 -43 -9 -3 3 -13 1 -24 -5 -24 -13
-126 -46 -135 -43 -5 1 -8 -2 -8 -8 0 -5 -7 -7 -15 -4 -8 4 -15 2 -15 -4 0 -9
-53 -28 -56 -20 -1 2 -11 -6 -23 -16 -12 -11 -23 -17 -26 -15 -8 9 41 99 50
92 4 -5 5 -3 1 4 -4 7 9 35 29 63 19 27 35 56 35 64 0 8 6 21 13 28 7 7 18 25
24 41 7 15 17 27 23 27 6 0 9 4 6 9 -8 12 39 102 49 93 5 -4 5 -2 1 5 -8 14
42 95 55 88 4 -3 11 0 15 6 5 8 3 9 -6 4 -10 -6 -12 -4 -6 11 5 10 13 31 18
46 6 16 15 25 21 21 6 -4 8 0 4 10 -4 10 -1 17 5 17 6 0 8 3 5 7 -4 3 1 16 12
27 10 12 34 54 52 93 19 40 40 73 47 73 7 0 11 4 7 9 -5 9 23 66 72 143 12 21
23 45 23 53 0 10 5 13 12 9 6 -4 8 -3 5 3 -3 5 5 26 18 46 14 20 25 41 25 46
0 6 4 11 9 11 5 0 12 13 16 30 4 16 11 32 15 35 5 3 19 27 30 52 11 26 32 61
45 79 13 17 21 34 18 38 -4 3 -1 6 5 6 7 0 11 3 10 8 -1 4 9 27 24 52 15 25
34 62 44 82 10 21 22 34 28 31 6 -3 8 -3 4 2 -11 11 52 126 65 118 5 -3 7 -1
4 4 -8 12 13 56 60 131 19 28 31 52 28 52 -3 0 7 19 23 43 29 42 32 47 32 68
0 5 5 7 12 3 7 -5 8 -3 4 5 -5 7 0 21 11 33 10 11 26 39 35 61 17 42 17 42 20
-143 1 -102 3 -210 3 -242 1 -31 6 -62 12 -70 11 -14 33 -50 92 -158 129 -235
228 -400 240 -400 10 0 11 3 2 13 -6 8 -7 18 -3 22 4 5 2 5 -5 1 -7 -4 -17 2
-23 14 -6 11 -8 20 -4 20 3 0 1 6 -5 13 -6 8 -7 18 -3 22 4 5 2 5 -5 2 -7 -4
-20 10 -33 35 -12 24 -35 66 -51 93 -17 28 -33 58 -36 68 -3 9 -10 17 -15 17
-5 0 -7 4 -4 9 4 5 -4 22 -17 38 -39 47 -89 142 -81 154 4 8 3 9 -4 5 -7 -4
-12 0 -12 10 0 9 -8 23 -17 31 -11 9 -12 12 -3 7 12 -6 13 -4 3 7 -10 9 -13
68 -13 218 0 186 1 204 16 190 8 -9 16 -23 18 -32 1 -9 9 -24 17 -34 22 -25
30 -51 19 -58 -6 -4 -10 -11 -10 -18 0 -6 6 -3 13 7 13 17 15 16 28 -15 8 -19
14 -41 14 -49 1 -8 7 -14 14 -12 8 2 11 -3 8 -11 -3 -7 6 -24 19 -36 14 -13
22 -26 19 -29 -3 -3 3 -15 13 -26 25 -28 35 -56 19 -57 -7 0 -2 -5 11 -11 12
-6 22 -17 22 -23 0 -7 7 -18 15 -25 9 -7 14 -19 11 -27 -3 -8 -2 -12 3 -9 5 3
14 -7 19 -23 11 -30 82 -142 82 -128 0 4 -12 26 -27 50 -15 23 -27 44 -28 47
0 3 -72 136 -160 295 -88 160 -159 296 -159 303 2 16 0 15 -18 -5z"/>
<path d="M2991 5134 c0 -11 3 -14 6 -6 3 7 2 16 -1 19 -3 4 -6 -2 -5 -13z"/>
<path d="M3260 5139 c0 -5 5 -7 10 -4 6 3 10 8 10 11 0 2 -4 4 -10 4 -5 0 -10
-5 -10 -11z"/>
<path d="M3295 5136 c-16 -12 -13 -14 34 -20 169 -22 468 -150 633 -268 316
-230 537 -569 620 -954 20 -94 23 -135 22 -294 -1 -140 -6 -206 -20 -270 l-19
-84 -67 -20 c-71 -20 -92 -38 -35 -30 17 3 46 7 62 9 17 3 35 6 42 7 6 1 9 8
5 16 -3 9 -1 13 5 9 6 -4 10 -1 10 6 -1 6 7 57 17 111 11 55 19 148 20 207 1
59 4 105 8 103 11 -7 6 70 -8 114 -8 24 -12 47 -9 52 9 14 -21 132 -36 142
-11 8 -12 11 -1 15 11 4 10 9 -1 26 -16 25 -31 76 -28 95 1 7 -5 22 -14 34 -8
13 -15 32 -15 45 0 12 -6 28 -14 35 -7 8 -17 29 -21 46 -3 18 -10 32 -15 32
-4 0 -13 14 -20 30 -7 17 -16 30 -21 30 -5 0 -9 6 -9 14 0 7 -7 19 -15 26 -8
7 -12 16 -10 21 3 4 -3 12 -12 18 -10 6 -15 11 -11 11 7 0 -11 25 -39 55 -7 8
-13 18 -13 24 0 6 -5 11 -10 11 -6 0 -15 11 -20 25 -5 14 -15 25 -21 25 -6 0
-8 7 -5 17 4 10 4 15 1 11 -3 -3 -33 23 -67 58 -33 35 -69 66 -80 70 -15 4
-17 9 -8 20 10 11 6 16 -16 26 -24 10 -95 59 -141 98 -7 6 -16 10 -20 9 -22
-4 -24 3 -9 26 9 14 12 25 6 25 -5 0 -10 -4 -10 -9 0 -12 -39 -21 -45 -11 -3
5 -1 10 5 12 6 2 1 9 -11 17 -19 11 -21 11 -16 -3 4 -9 2 -16 -2 -16 -5 0 -12
7 -15 16 -3 8 -10 12 -16 9 -6 -3 -13 1 -16 10 -4 9 -13 14 -21 11 -8 -3 -11
-1 -8 4 3 6 -2 10 -12 10 -22 0 -115 44 -108 52 3 2 -5 4 -17 3 -24 -2 -99 31
-110 49 -5 7 -8 7 -8 -3 0 -9 -4 -10 -12 -4 -7 6 -26 9 -43 6 -23 -3 -26 -1
-15 7 12 7 7 10 -20 11 -19 1 -47 1 -62 0 -16 -1 -28 2 -28 8 0 6 -7 7 -17 4
-11 -4 -14 -3 -9 5 9 16 4 15 -19 -2z m1332 -1408 c-3 -8 -6 -5 -6 6 -1 11 2
17 5 13 3 -3 4 -12 1 -19z"/>
<path d="M2512 5094 c-7 -8 -25 -14 -40 -14 -15 0 -44 -9 -64 -20 -22 -12 -40
-16 -43 -10 -3 6 -11 10 -16 10 -6 0 -7 -4 -4 -10 3 -5 -6 -12 -20 -16 -13 -3
-23 -9 -20 -13 2 -4 -9 -7 -25 -6 -16 1 -28 -3 -27 -9 1 -6 -9 -12 -23 -14
-13 -2 -31 -13 -38 -23 -10 -15 -17 -17 -33 -9 -11 7 -19 7 -19 1 0 -5 5 -11
10 -13 6 -2 -6 -12 -27 -23 -21 -11 -40 -22 -43 -25 -3 -3 -18 -11 -33 -18
-15 -7 -26 -16 -23 -21 3 -4 -6 -6 -21 -3 -22 4 -25 2 -19 -14 4 -10 4 -15 1
-12 -4 4 -20 -6 -36 -23 -15 -16 -34 -27 -41 -26 -7 2 -10 2 -6 0 4 -2 4 -11
1 -19 -5 -13 -9 -12 -26 3 -19 18 -20 18 -8 -5 10 -18 9 -23 -4 -28 -8 -3 -12
-10 -9 -15 3 -5 -1 -9 -9 -9 -7 0 -19 -12 -25 -26 -7 -14 -17 -22 -22 -19 -6
3 -10 2 -10 -3 0 -4 -10 -19 -22 -32 -13 -14 -22 -28 -21 -32 2 -5 -2 -7 -9
-5 -7 1 -13 -4 -14 -10 -3 -26 -5 -28 -13 -15 -6 10 -10 10 -21 -3 -11 -13
-10 -14 5 -9 15 6 15 4 5 -13 -7 -11 -22 -24 -34 -29 -11 -5 -22 -15 -22 -21
-1 -7 -2 -20 -3 -28 -1 -9 -7 -12 -18 -8 -13 5 -15 2 -10 -16 4 -17 2 -20 -7
-12 -9 8 -12 4 -12 -12 0 -30 -35 -98 -47 -90 -6 3 -7 1 -3 -5 4 -7 2 -20 -3
-29 -6 -11 -11 -13 -11 -5 0 7 -5 10 -10 7 -6 -4 -9 -19 -8 -33 2 -17 -1 -26
-9 -25 -7 2 -13 -2 -13 -7 0 -6 6 -10 13 -10 7 0 8 -3 2 -8 -16 -11 -36 -62
-29 -74 4 -7 2 -8 -4 -4 -7 4 -14 -4 -18 -21 -3 -15 -10 -43 -16 -61 -9 -29
-12 -31 -26 -20 -13 11 -14 11 -7 -2 15 -24 12 -89 -4 -95 -10 -4 -12 -18 -8
-58 4 -34 3 -45 -3 -32 -7 17 -9 15 -11 -15 -1 -19 -1 -57 1 -84 1 -27 -2 -46
-7 -43 -5 3 -8 -9 -6 -26 1 -18 4 -79 7 -137 2 -58 9 -134 16 -170 7 -36 14
-76 15 -90 1 -14 7 -38 14 -53 6 -16 11 -39 11 -53 0 -13 5 -24 10 -24 6 0 10
-13 10 -30 0 -16 4 -30 9 -30 5 0 13 -9 16 -20 6 -20 35 -28 35 -10 0 6 5 9
12 8 6 -2 16 13 22 32 5 19 12 37 15 40 6 5 8 13 20 77 5 23 5 41 1 38 -4 -2
-8 8 -8 23 -2 38 -6 55 -16 71 -6 10 -5 12 2 7 7 -4 12 -3 12 3 0 5 -5 11 -12
13 -13 5 -15 24 -23 176 -2 58 -1 90 5 87 6 -4 10 -2 10 4 0 5 -4 11 -8 13
-11 4 8 181 20 189 5 3 10 27 11 52 1 25 5 43 9 40 5 -2 8 11 8 29 0 18 6 45
14 60 8 15 17 40 21 56 9 43 41 102 50 94 5 -4 5 -2 2 5 -9 15 44 114 57 106
5 -4 6 -1 1 7 -4 7 -3 15 2 19 5 3 22 26 36 51 14 25 34 54 44 65 10 11 30 36
43 55 38 54 103 120 112 114 5 -3 7 -2 6 3 -2 4 7 18 20 31 12 12 22 19 22 16
0 -4 7 -1 15 6 8 7 12 17 8 23 -3 5 -1 7 4 4 6 -4 18 2 28 13 10 11 22 17 28
13 6 -3 7 -1 3 5 -4 7 -1 12 9 12 8 0 18 7 21 15 4 8 12 15 20 15 8 0 14 5 14
10 0 6 7 10 15 10 8 0 15 5 15 11 0 5 4 8 9 5 5 -3 14 1 21 9 6 7 31 22 56 31
24 9 44 21 44 25 0 5 3 8 8 7 4 -1 23 5 42 14 19 8 58 23 85 33 28 9 64 23 82
31 17 8 39 14 50 14 10 1 29 7 43 15 14 7 39 11 55 9 28 -4 28 -4 8 7 -47 24
-323 -67 -480 -159 -439 -257 -713 -729 -713 -1228 0 -94 25 -273 49 -352 8
-28 5 -42 -22 -102 -18 -38 -35 -69 -38 -70 -9 0 -67 198 -86 295 -26 136 -23
368 5 513 81 405 321 768 660 996 132 88 324 174 486 217 28 7 44 15 38 17 -7
2 -26 -1 -42 -6 -16 -6 -30 -7 -32 -2 -2 4 -9 2 -16 -6z"/>
<path d="M3310 5095 c33 -16 140 -32 128 -20 -3 3 -21 7 -40 9 -19 2 -39 5
-44 8 -5 3 -25 9 -44 12 l-35 7 35 -16z"/>
<path d="M3246 5092 c10 -7 37 -66 35 -77 -3 -13 42 -45 63 -45 14 0 28 -4 31
-10 3 -5 20 -10 36 -10 17 0 40 -5 52 -12 35 -20 90 -37 99 -32 4 3 8 0 8 -5
0 -6 4 -11 9 -11 11 0 125 -55 176 -85 22 -13 51 -29 65 -35 14 -6 34 -20 45
-30 11 -11 52 -45 90 -77 39 -31 82 -70 98 -85 15 -15 31 -28 36 -28 5 0 13
-9 16 -20 4 -11 17 -28 31 -36 13 -9 22 -20 19 -24 -3 -5 6 -17 19 -28 14 -10
35 -40 47 -65 13 -26 27 -47 31 -47 12 0 79 -141 72 -152 -3 -5 0 -7 8 -6 8 2
14 -8 16 -24 2 -16 8 -28 14 -28 6 0 8 -9 5 -20 -3 -11 -2 -18 3 -15 7 4 48
-105 56 -150 2 -11 9 -42 15 -70 6 -27 11 -60 11 -72 0 -13 3 -23 7 -23 17 0
14 -284 -4 -342 -4 -12 -3 -18 3 -14 5 3 1 -25 -9 -61 -10 -37 -15 -71 -13
-75 3 -4 0 -8 -5 -8 -6 0 -11 -9 -11 -19 0 -11 -6 -22 -12 -24 -7 -3 -3 -6 8
-6 19 -1 24 9 38 67 54 231 49 460 -15 691 -88 316 -317 626 -594 804 -146 93
-365 185 -486 202 -43 6 -47 10 -72 61 -15 30 -32 54 -39 54 -9 0 -9 -3 -2 -8z"/>
<path d="M2570 5078 c-25 -6 -40 -12 -34 -15 5 -2 37 3 70 11 32 8 48 14 34
14 -14 0 -45 -5 -70 -10z"/>
<path d="M2992 5040 c-2 -19 -3 -87 -2 -150 1 -120 -5 -155 -23 -143 -6 3 -7
1 -3 -5 8 -13 -24 -73 -35 -66 -4 2 -5 -5 -2 -17 5 -17 12 -10 40 40 l34 60
-4 158 c-1 87 -4 142 -5 123z"/>
<path d="M3463 5052 c10 -10 14 -22 10 -27 -5 -4 -2 -5 5 -1 7 4 10 12 7 17
-10 15 12 10 25 -6 7 -8 16 -13 20 -10 4 3 24 -2 44 -10 20 -8 36 -13 36 -10
0 8 104 -49 116 -64 6 -7 22 -15 37 -16 32 -4 49 -14 42 -25 -3 -5 -1 -11 4
-14 5 -4 12 -2 16 4 4 6 11 8 16 4 5 -3 7 -10 3 -15 -3 -5 -2 -9 3 -8 16 4 63
-13 58 -21 -3 -4 5 -11 18 -14 12 -3 39 -22 61 -41 21 -19 43 -35 48 -35 6 0
6 -6 -1 -14 -10 -12 -9 -14 7 -9 14 3 25 -5 40 -29 12 -18 22 -30 22 -26 0 3
20 -13 44 -35 24 -23 41 -45 39 -49 -2 -5 3 -8 11 -8 9 0 16 -4 16 -10 0 -5 8
-19 18 -29 55 -60 67 -75 65 -83 -2 -4 2 -8 7 -8 6 0 10 -7 10 -15 0 -8 5 -15
12 -15 6 0 9 -3 5 -6 -3 -3 4 -17 16 -30 11 -13 22 -32 23 -41 2 -9 7 -19 12
-22 15 -10 28 -45 27 -73 0 -15 3 -24 8 -21 4 3 6 12 3 22 -5 12 -3 12 9 -3
10 -13 11 -24 5 -36 -7 -14 -6 -17 7 -16 18 1 29 -39 13 -49 -13 -8 -13 -35 0
-35 6 0 10 10 10 22 0 12 3 18 7 14 11 -11 35 -79 36 -106 1 -14 7 -29 14 -33
8 -5 10 -19 6 -39 -4 -22 -3 -29 5 -24 8 5 10 -3 7 -26 -4 -26 -3 -29 4 -13 8
16 10 16 10 4 1 -9 4 -32 7 -50 4 -26 3 -30 -5 -19 -8 12 -11 6 -11 -27 0 -23
4 -45 10 -48 6 -4 8 7 4 27 -4 24 -3 29 5 18 5 -8 8 -41 7 -75 -2 -36 0 -52 5
-40 4 12 8 -29 8 -96 1 -64 -2 -119 -6 -123 -4 -4 -6 -22 -5 -41 2 -18 -1 -36
-7 -40 -16 -9 -13 -22 3 -22 20 0 31 98 29 242 -5 396 -185 799 -479 1074
-175 164 -335 261 -561 341 -98 35 -112 37 -90 12z m292 -112 c3 -6 -1 -7 -9
-4 -18 7 -21 14 -7 14 6 0 13 -4 16 -10z"/>
<path d="M2415 5026 c-97 -35 -136 -54 -202 -95 -46 -28 -51 -36 -29 -44 10
-4 13 -1 9 9 -3 9 2 14 17 14 11 0 18 5 15 10 -3 6 -3 10 2 11 29 3 47 9 54
21 5 7 9 10 9 6 0 -5 9 1 20 12 11 11 28 20 38 20 15 0 15 -2 2 -11 -13 -9
-13 -10 0 -6 8 2 14 9 13 15 -2 7 10 9 32 7 19 -3 37 0 40 5 3 6 0 10 -7 10
-7 1 2 7 21 15 18 8 37 12 42 9 5 -3 9 0 9 6 0 7 7 9 16 6 8 -3 12 -2 9 4 -8
13 -7 14 -110 -24z"/>
<path d="M2587 4998 c2 -5 10 -8 18 -8 8 0 16 3 18 8 3 4 -5 7 -18 7 -13 0
-21 -3 -18 -7z"/>
<path d="M3398 4998 c5 -5 16 -8 23 -6 8 3 3 7 -10 11 -17 4 -21 3 -13 -5z"/>
<path d="M2718 4993 c7 -3 16 -2 19 1 4 3 -2 6 -13 5 -11 0 -14 -3 -6 -6z"/>
<path d="M2499 4973 c-14 -16 -5 -16 41 2 l35 13 -33 -1 c-17 0 -37 -6 -43
-14z"/>
<path d="M3478 4973 c7 -3 16 -2 19 1 4 3 -2 6 -13 5 -11 0 -14 -3 -6 -6z"/>
<path d="M2415 4960 c-3 -5 -3 -10 2 -10 4 0 1 -5 -7 -10 -17 -11 -4 -12 23
-1 17 6 17 8 4 19 -10 9 -17 10 -22 2z"/>
<path d="M3523 4959 c11 -7 23 -7 28 -2 5 5 -3 9 -19 11 -24 1 -25 0 -9 -9z"/>
<path d="M2107 4953 c-4 -3 -7 -11 -7 -17 0 -6 5 -5 12 2 6 6 9 14 7 17 -3 3
-9 2 -12 -2z"/>
<path d="M3590 4940 c-9 -6 -10 -10 -3 -10 6 0 15 5 18 10 8 12 4 12 -15 0z"/>
<path d="M2370 4932 c0 -9 -29 -24 -50 -27 -3 0 -22 -11 -43 -24 -32 -20 -40
-21 -55 -9 -15 12 -16 11 -3 -4 11 -15 11 -18 -2 -18 -8 0 -20 -7 -27 -15 -7
-9 -15 -13 -18 -10 -3 3 -19 -7 -34 -22 -16 -16 -39 -28 -51 -28 -12 0 -22 -5
-22 -12 0 -12 -13 -28 -23 -28 -4 0 -24 -16 -46 -35 -21 -19 -43 -34 -48 -32
-5 1 -7 -2 -3 -8 3 -5 1 -10 -5 -10 -6 0 -8 -5 -4 -11 4 -7 22 4 48 29 80 76
174 139 316 210 74 37 87 48 76 60 -3 3 -6 0 -6 -6z"/>
<path d="M3660 4904 c30 -14 79 -39 108 -56 28 -16 52 -26 52 -21 0 4 -10 13
-22 18 -13 6 -22 16 -21 23 2 6 -4 9 -12 6 -14 -6 -77 25 -70 35 2 4 -9 7 -23
7 -15 1 -36 4 -47 8 -11 3 5 -5 35 -20z"/>
<path d="M2140 4875 c0 -8 4 -15 10 -15 5 0 7 7 4 15 -4 8 -8 15 -10 15 -2 0
-4 -7 -4 -15z"/>
<path d="M2093 4853 c-17 -6 -17 -20 0 -20 8 0 14 6 14 14 0 7 -1 13 -1 12 -1
0 -7 -3 -13 -6z"/>
<path d="M3081 4844 c0 -11 3 -14 6 -6 3 7 2 16 -1 19 -3 4 -6 -2 -5 -13z"/>
<path d="M3830 4822 c0 -5 12 -18 28 -27 15 -10 53 -38 85 -62 33 -24 61 -42
63 -40 2 2 -13 16 -35 31 -22 15 -42 34 -45 42 -3 9 -10 13 -14 10 -5 -3 -25
9 -45 25 -20 17 -37 26 -37 21z"/>
<path d="M2010 4780 c-8 -5 -10 -10 -5 -10 6 0 17 5 25 10 8 5 11 10 5 10 -5
0 -17 -5 -25 -10z"/>
<path d="M1951 4747 c-8 -10 -7 -14 2 -14 8 0 14 6 14 14 0 7 -1 13 -2 13 -2
0 -8 -6 -14 -13z"/>
<path d="M1885 4690 c3 -5 8 -10 11 -10 2 0 4 5 4 10 0 6 -5 10 -11 10 -5 0
-7 -4 -4 -10z"/>
<path d="M1929 4683 c-13 -17 -13 -17 6 -3 11 8 22 16 24 17 2 2 0 3 -6 3 -6
0 -17 -8 -24 -17z"/>
<path d="M4011 4678 c3 -2 36 -32 74 -68 38 -36 62 -56 53 -45 -8 11 -13 27
-11 35 3 11 2 11 -4 3 -6 -9 -21 1 -51 32 -24 25 -48 45 -54 45 -6 0 -9 -1 -7
-2z"/>
<path d="M1867 4663 c-4 -3 -7 -11 -7 -17 0 -6 5 -5 12 2 6 6 9 14 7 17 -3 3
-9 2 -12 -2z"/>
<path d="M1813 4625 c-7 -8 -9 -16 -5 -19 4 -3 13 4 20 15 14 22 3 25 -15 4z"/>
<path d="M1883 4616 c-4 -5 -1 -6 7 -1 10 6 12 4 6 -10 -7 -18 -6 -18 14 0 11
10 20 19 20 19 0 7 -43 -1 -47 -8z"/>
<path d="M2900 4600 c-7 -16 -17 -27 -23 -23 -5 3 -7 2 -4 -3 3 -6 -10 -39
-29 -74 -18 -35 -32 -65 -30 -67 2 -2 21 27 41 64 21 37 46 83 57 101 11 17
15 32 10 32 -5 0 -15 -13 -22 -30z"/>
<path d="M1757 4560 c-64 -75 -148 -210 -202 -324 -148 -309 -183 -643 -103
-971 12 -49 23 -84 26 -77 2 7 8 9 14 6 6 -4 8 -1 6 7 -3 8 -11 13 -17 12 -6
-2 -11 10 -11 26 0 16 -7 45 -15 65 -12 28 -12 36 -3 36 10 0 9 3 -1 9 -8 5
-12 18 -8 30 3 12 1 21 -4 21 -6 0 -5 8 1 19 13 25 13 41 0 21 -7 -11 -9 0 -7
38 1 28 -1 52 -5 52 -4 0 -8 35 -7 78 0 53 3 71 9 57 6 -13 7 5 3 48 -5 57 -3
71 13 89 10 12 15 19 9 16 -5 -3 -10 5 -10 18 0 13 2 24 5 24 3 0 6 21 7 47 1
25 7 51 12 56 5 5 7 15 5 22 -3 7 -1 16 5 20 6 3 11 18 11 33 0 22 2 24 11 12
8 -12 9 -10 4 8 -5 17 -1 27 11 37 11 7 22 11 26 9 5 -3 8 -1 8 4 0 6 -7 12
-15 16 -18 6 -20 27 -3 24 6 -2 13 8 14 22 3 34 23 81 23 58 1 -10 9 -18 19
-18 12 0 14 2 4 8 -9 6 -10 16 -3 34 5 14 7 28 4 31 -3 3 1 15 9 26 8 12 18
18 22 13 4 -4 7 -2 6 3 -3 16 12 55 21 55 5 0 9 7 9 15 0 8 5 15 11 15 5 0 8
4 5 9 -3 5 5 20 19 32 13 13 25 30 25 37 0 6 7 12 16 12 8 0 12 4 9 10 -3 5
-1 15 5 22 32 39 50 61 50 65 0 9 -12 -1 -43 -37z"/>
<path d="M1860 4565 c-7 -13 -18 -21 -24 -18 -6 3 -8 3 -4 -1 8 -10 -71 -112
-83 -108 -5 1 -9 -2 -9 -8 0 -22 19 -7 65 51 26 33 56 69 67 79 11 10 15 20
10 24 -5 3 -15 -6 -22 -19z"/>
<path d="M4150 4536 c0 -2 7 -9 15 -16 9 -7 15 -8 15 -2 0 5 -7 12 -15 16 -8
3 -15 4 -15 2z"/>
<path d="M1590 4489 c0 -5 5 -7 10 -4 6 3 10 8 10 11 0 2 -4 4 -10 4 -5 0 -10
-5 -10 -11z"/>
<path d="M2936 4484 c-9 -24 -2 -26 12 -4 7 11 8 20 3 20 -5 0 -12 -7 -15 -16z"/>
<path d="M3420 4479 c0 -5 5 -7 10 -4 6 3 10 8 10 11 0 2 -4 4 -10 4 -5 0 -10
-5 -10 -11z"/>
<path d="M4238 4428 c21 -29 44 -64 51 -76 21 -39 22 -19 2 21 -10 20 -21 33
-25 30 -3 -4 -7 -1 -7 5 -1 7 -2 15 -3 20 -1 9 -44 52 -51 52 -3 0 12 -24 33
-52z"/>
<path d="M3450 4450 c6 -11 13 -20 16 -20 2 0 0 9 -6 20 -6 11 -13 20 -16 20
-2 0 0 -9 6 -20z"/>
<path d="M2896 4408 c-64 -109 -68 -118 -50 -118 10 0 14 3 11 7 -4 3 0 17 8
30 9 13 12 23 8 23 -5 0 0 5 10 11 9 5 17 16 17 22 0 7 5 18 12 25 11 11 20
42 13 42 -2 0 -15 -19 -29 -42z"/>
<path d="M2777 4406 c-3 -8 -2 -18 3 -21 13 -8 24 15 12 27 -6 6 -11 4 -15 -6z"/>
<path d="M3475 4402 c2 -13 13 -34 24 -48 12 -15 18 -31 14 -37 -4 -6 -1 -7 7
-2 10 6 12 4 7 -8 -3 -9 -1 -20 6 -24 7 -5 23 -29 36 -55 13 -27 28 -48 32
-48 7 0 -105 216 -122 234 -5 5 -7 0 -4 -12z"/>
<path d="M1716 4374 c-9 -24 -2 -26 12 -4 7 11 8 20 3 20 -5 0 -12 -7 -15 -16z"/>
<path d="M2734 4300 c-20 -38 -41 -68 -48 -67 -6 1 -10 -4 -8 -12 4 -17 -29
-81 -41 -81 -4 0 -6 -3 -4 -7 3 -5 -3 -23 -13 -41 -12 -21 -20 -28 -24 -20 -3
7 -3 2 0 -11 5 -17 3 -21 -6 -16 -8 5 -11 4 -6 -3 3 -6 1 -16 -6 -24 -7 -7
-34 -53 -60 -103 -26 -49 -51 -89 -55 -88 -4 1 -9 -10 -9 -24 -2 -23 -1 -23
10 -6 7 10 32 54 56 98 23 44 46 85 50 90 8 10 165 296 194 353 9 17 14 32 12
32 -3 0 -21 -31 -42 -70z"/>
<path d="M1693 4345 c4 -5 0 -17 -10 -27 -9 -10 -14 -20 -11 -23 3 -3 13 6 22
19 12 19 13 27 3 32 -6 4 -9 3 -4 -1z"/>
<path d="M4335 4320 c3 -5 8 -10 11 -10 2 0 4 5 4 10 0 6 -5 10 -11 10 -5 0
-7 -4 -4 -10z"/>
<path d="M4339 4262 c18 -34 36 -60 41 -57 5 3 14 -4 20 -15 11 -21 30 -27 30
-9 0 5 -4 7 -10 4 -9 -5 -14 7 -11 27 0 3 -7 5 -16 4 -12 -2 -25 13 -40 43
-13 25 -28 50 -34 56 -6 5 3 -18 20 -53z"/>
<path d="M2795 4279 c-4 -6 -5 -12 -2 -15 2 -3 7 2 10 11 7 17 1 20 -8 4z"/>
<path d="M1652 4268 c-7 -7 -12 -19 -12 -27 0 -11 5 -8 16 7 18 25 15 39 -4
20z"/>
<path d="M2814 4266 c-3 -8 -1 -23 5 -33 9 -15 10 -13 11 15 0 34 -7 42 -16
18z"/>
<path d="M2766 4173 c-34 -55 -51 -99 -22 -58 22 32 67 115 62 115 -2 0 -21
-26 -40 -57z"/>
<path d="M3528 4213 c7 -3 16 -2 19 1 4 3 -2 6 -13 5 -11 0 -14 -3 -6 -6z"/>
<path d="M1611 4187 c-6 -8 -8 -17 -4 -20 3 -4 -2 -9 -11 -13 -9 -3 -16 -17
-16 -33 0 -21 -2 -23 -10 -11 -8 11 -9 9 -5 -10 3 -14 -1 -45 -10 -69 -8 -24
-13 -46 -11 -48 2 -2 16 33 31 79 15 46 31 88 35 93 9 13 20 45 16 45 -2 0 -9
-6 -15 -13z"/>
<path d="M4381 4185 c0 -5 6 -21 14 -35 8 -14 14 -20 14 -15 0 6 -6 21 -14 35
-8 14 -14 21 -14 15z"/>
<path d="M3348 4163 c7 -3 16 -2 19 1 4 3 -2 6 -13 5 -11 0 -14 -3 -6 -6z"/>
<path d="M4416 4121 c-4 -5 -2 -19 2 -32 l9 -23 5 22 c4 14 2 20 -5 15 -6 -4
-8 0 -4 10 7 18 2 23 -7 8z"/>
<path d="M2700 4050 c-12 -23 -17 -39 -11 -35 15 8 44 65 37 72 -2 3 -14 -14
-26 -37z"/>
<path d="M4566 4075 c4 -8 8 -15 10 -15 2 0 4 7 4 15 0 8 -4 15 -10 15 -5 0
-7 -7 -4 -15z"/>
<path d="M4160 4059 c-159 -19 -390 -61 -435 -80 -26 -10 -67 -23 -80 -25 -5
0 -17 -4 -25 -7 -63 -27 -203 -67 -212 -61 -6 4 -8 3 -5 -3 4 -6 -4 -14 -18
-17 -14 -4 -24 -10 -21 -14 2 -4 -6 -8 -17 -9 -45 -3 -75 -8 -72 -11 8 -8
-297 -152 -307 -146 -6 4 -8 3 -4 -4 8 -13 -82 -64 -98 -55 -6 3 -8 3 -4 -2
10 -11 -53 -57 -70 -50 -7 2 -10 1 -7 -5 3 -5 -7 -17 -22 -27 -15 -9 -65 -45
-110 -80 -82 -63 -100 -74 -87 -50 4 7 3 8 -2 4 -5 -5 -9 -14 -9 -20 0 -7 -41
-51 -90 -98 l-90 -86 -97 -16 c-141 -24 -270 -69 -415 -143 -71 -36 -132 -70
-137 -75 -15 -14 0 -22 21 -10 15 8 20 7 20 -5 0 -7 -5 -14 -10 -14 -6 0 -7
-3 -4 -6 11 -12 36 17 30 33 -5 13 -2 15 11 10 10 -4 15 -3 11 3 -6 9 17 15
40 10 5 -1 7 2 2 6 -4 4 17 20 47 35 31 14 53 29 50 32 -3 3 4 3 17 0 15 -4
20 -3 15 5 -4 7 -4 13 1 13 4 1 21 3 36 5 16 1 40 10 53 19 13 8 24 13 24 10
0 -3 10 -1 21 6 12 6 31 13 43 15 48 8 199 43 215 50 9 4 19 8 22 8 14 2 87
75 81 81 -4 4 3 4 16 0 12 -3 22 -3 21 2 -4 16 13 43 27 43 8 0 13 5 12 11 -3
11 14 23 45 33 9 3 17 11 17 18 0 9 -3 9 -11 -2 -9 -13 -10 -13 -6 0 4 17 29
21 39 5 5 -6 8 -3 9 8 1 9 2 22 3 29 0 6 9 12 19 14 10 1 27 10 38 20 10 9 19
14 19 10 0 -7 16 5 53 40 38 36 84 64 106 64 12 0 21 6 21 15 0 8 3 14 8 12 4
-1 9 3 11 8 4 11 142 80 154 77 4 -1 7 2 7 8 0 5 17 16 38 25 20 9 45 21 54
26 10 5 28 9 40 9 17 0 19 3 9 9 -10 7 -5 11 18 16 18 4 28 11 25 17 -5 7 -2
8 7 3 19 -13 49 -14 42 -2 -4 6 2 8 15 5 13 -4 20 -1 19 5 -1 6 7 13 18 15 11
2 24 10 28 18 4 8 18 14 30 13 l22 0 -22 -9 c-34 -14 -28 -21 6 -9 22 8 28 15
24 27 -6 14 -4 15 8 5 9 -7 20 -8 29 -3 8 5 18 6 22 4 5 -3 11 2 14 10 5 12
10 13 27 5 17 -10 19 -9 14 4 -5 13 3 18 31 22 20 4 48 11 62 17 14 6 34 10
45 9 12 -1 34 5 50 13 17 9 46 18 65 21 19 4 58 12 85 20 28 8 108 21 179 30
72 9 138 21 148 26 18 10 24 20 11 18 -5 -1 -42 -6 -83 -10z"/>
<path d="M3835 4050 c-66 -4 -134 -10 -150 -13 -17 -4 -52 -9 -80 -12 -182
-22 -446 -89 -660 -169 -112 -42 -335 -148 -330 -156 3 -4 -3 -7 -13 -6 -9 0
-16 -5 -14 -12 1 -8 -3 -12 -10 -9 -16 5 -88 -30 -88 -44 0 -6 -4 -8 -8 -5
-12 7 -56 -26 -60 -44 -1 -9 5 -6 15 8 10 12 29 24 43 27 14 3 26 9 28 15 2 6
9 7 14 4 7 -4 8 -2 4 4 -4 7 0 13 11 14 10 0 23 2 30 2 7 1 18 7 25 14 6 6 17
12 24 12 6 0 15 7 18 16 3 9 12 14 20 11 7 -3 20 3 29 14 9 10 29 21 44 25 15
4 54 20 86 35 33 16 63 26 68 23 5 -3 9 -1 9 4 0 5 28 20 63 32 34 12 79 29
100 38 21 8 44 15 52 15 8 0 15 5 15 10 0 5 7 7 14 4 8 -3 28 1 44 9 16 8 49
18 73 23 24 5 53 12 63 16 13 6 17 5 12 -3 -3 -6 7 -4 24 5 31 15 152 41 225
47 22 2 65 9 95 15 30 7 69 11 85 9 17 -1 36 1 43 6 7 4 12 2 12 -6 0 -9 3 -9
8 -2 4 6 32 12 62 13 30 1 71 6 90 10 42 11 31 11 -135 1z"/>
<path d="M4580 4040 c0 -5 5 -10 10 -10 6 0 10 5 10 10 0 6 -4 10 -10 10 -5 0
-10 -4 -10 -10z"/>
<path d="M4441 4030 c-1 -3 6 -25 13 -50 11 -32 15 -38 15 -20 0 20 -28 89
-28 70z"/>
<path d="M3710 4009 c0 -5 -5 -7 -12 -3 -6 4 -8 3 -5 -4 4 -5 16 -8 27 -5 11
3 17 9 14 14 -7 12 -24 11 -24 -2z"/>
<path d="M4502 3990 c0 -14 2 -19 5 -12 2 6 2 18 0 25 -3 6 -5 1 -5 -13z"/>
<path d="M2665 3980 c3 -5 8 -10 11 -10 2 0 4 5 4 10 0 6 -5 10 -11 10 -5 0
-7 -4 -4 -10z"/>
<path d="M1502 3965 c2 -14 -2 -19 -14 -17 -10 2 -18 -2 -18 -8 0 -6 5 -8 10
-5 6 3 10 -1 10 -10 0 -9 5 -13 11 -10 6 4 8 10 5 13 -3 3 -1 11 6 19 8 10 8
17 -1 26 -10 9 -12 8 -9 -8z"/>
<path d="M1532 3950 c0 -14 2 -19 5 -12 2 6 2 18 0 25 -3 6 -5 1 -5 -13z"/>
<path d="M3420 3929 c-13 -6 -27 -14 -30 -18 -6 -10 -110 -46 -127 -45 -7 1
-10 -3 -6 -9 4 -6 0 -8 -11 -4 -10 4 -15 3 -11 -3 3 -6 -5 -10 -19 -10 -32 0
-57 -10 -51 -20 3 -5 -8 -11 -25 -15 -16 -4 -30 -11 -30 -17 0 -6 6 -8 13 -5
6 3 57 26 112 50 56 24 118 50 138 56 20 7 37 17 37 21 0 5 6 7 14 4 7 -3 16
2 19 10 4 9 5 16 4 15 -1 0 -13 -5 -27 -10z"/>
<path d="M3466 3931 c-4 -5 3 -7 14 -4 23 6 26 13 6 13 -8 0 -17 -4 -20 -9z"/>
<path d="M4501 3924 c0 -11 3 -14 6 -6 3 7 2 16 -1 19 -3 4 -6 -2 -5 -13z"/>
<path d="M1518 3913 c-2 -4 -5 -24 -6 -43 l-1 -35 10 39 c8 36 7 59 -3 39z"/>
<path d="M3766 3903 c-16 -3 -35 -11 -43 -19 -8 -8 -21 -14 -29 -14 -8 0 -33
-9 -55 -21 -23 -11 -38 -16 -34 -10 10 18 -3 13 -25 -9 -11 -11 -29 -20 -40
-20 -11 0 -28 -4 -38 -9 -40 -22 -86 -41 -99 -41 -7 0 -13 -4 -13 -10 0 -5 -8
-10 -17 -11 -48 -2 -136 -75 -105 -86 7 -3 25 -16 39 -29 14 -13 29 -21 34
-18 5 3 12 -2 15 -10 3 -9 14 -16 24 -16 10 0 20 -3 22 -7 2 -5 22 -21 45 -37
54 -36 226 -213 219 -225 -3 -5 6 -12 20 -15 15 -4 24 -10 20 -13 -3 -3 3 -12
14 -20 11 -8 20 -21 20 -29 0 -8 11 -19 25 -26 13 -6 23 -14 20 -17 -2 -4 17
-7 43 -8 99 -3 197 -17 210 -30 11 -10 17 -11 28 -2 9 7 14 8 14 1 0 -5 9 -8
20 -5 11 3 26 0 33 -6 16 -13 68 -18 85 -7 16 10 15 41 -2 56 -8 6 -20 28 -27
48 -7 20 -19 42 -27 48 -9 7 -12 16 -7 24 5 9 4 11 -3 6 -7 -4 -12 -1 -12 8 0
26 -22 66 -33 59 -6 -4 -8 0 -4 10 3 8 -1 21 -9 27 -8 7 -14 21 -14 32 0 10
-4 17 -9 14 -4 -3 -16 14 -27 37 -10 23 -26 55 -37 70 -10 15 -20 35 -21 44
-2 9 -9 21 -18 27 -8 6 -15 14 -16 19 -2 13 -82 170 -82 161 -1 -5 -7 6 -16
25 -13 31 -42 62 -54 59 -3 0 -18 -3 -34 -5z m254 -403 c89 -162 172 -310 183
-329 20 -34 20 -34 1 -27 -24 10 -145 31 -299 52 -80 11 -125 22 -135 33 -8 9
-41 48 -72 86 -85 105 -203 216 -296 278 -45 30 -79 57 -75 59 5 3 2 3 -4 2
-17 -4 -43 6 -43 17 0 5 4 9 9 9 5 0 42 15 83 34 94 43 253 107 343 137 39 12
74 26 79 31 11 9 2 24 226 -382z"/>
<path d="M3674 3801 c-123 -47 -294 -121 -312 -134 -21 -16 2 -31 27 -18 12 7
21 16 21 20 0 15 33 22 43 9 6 -9 7 -8 3 5 -5 15 3 20 30 16 4 0 10 3 13 8 6
9 78 42 101 47 8 2 32 11 53 20 21 9 51 18 67 19 16 1 28 6 27 11 -1 4 8 10
20 12 15 3 26 -4 35 -20 7 -13 23 -42 36 -65 12 -23 20 -47 16 -54 -4 -7 -3
-9 1 -4 10 9 34 -26 78 -113 17 -36 36 -68 40 -71 4 -3 7 -10 5 -15 -1 -5 6
-19 17 -32 11 -12 20 -26 19 -30 -1 -14 63 -126 74 -130 12 -4 2 15 -95 192
-24 43 -43 80 -43 82 0 2 -17 32 -38 66 -20 35 -55 98 -77 140 -22 43 -44 78
-50 78 -5 0 -56 -18 -111 -39z"/>
<path d="M3405 3650 c-3 -4 14 -20 37 -35 76 -50 286 -264 226 -229 -7 4 -10
3 -5 -1 12 -14 47 -16 47 -3 0 6 -35 45 -77 87 -43 42 -76 81 -75 86 2 6 0 7
-4 2 -10 -10 -45 23 -37 36 3 5 2 7 -4 4 -5 -3 -21 5 -36 19 -15 13 -30 25
-34 25 -5 1 -7 4 -6 8 2 10 -26 10 -32 1z"/>
<path d="M3467 3569 c12 -12 24 -21 27 -18 2 2 -8 13 -22 23 l-27 19 22 -24z"/>
<path d="M3727 3368 c-15 -12 -12 -18 26 -65 38 -46 47 -52 92 -58 28 -3 64
-8 80 -11 l30 -4 -30 13 c-16 8 -38 12 -47 9 -10 -2 -30 3 -44 13 -14 9 -28
14 -31 11 -7 -7 -43 38 -43 54 0 6 -4 9 -9 6 -14 -9 -21 20 -8 33 15 15 5 14
-16 -1z"/>
<path d="M4110 3236 c5 -13 6 -27 3 -30 -4 -3 1 -6 11 -6 15 0 15 2 1 30 -19
36 -28 40 -15 6z"/>
<path d="M3977 3230 c4 -4 35 -10 68 -13 44 -4 52 -3 30 3 -39 12 -108 19 -98
10z"/>
<path d="M3988 3203 c7 -3 16 -2 19 1 4 3 -2 6 -13 5 -11 0 -14 -3 -6 -6z"/>
<path d="M2605 3880 c-3 -5 -1 -10 4 -10 6 0 11 5 11 10 0 6 -2 10 -4 10 -3 0
-8 -4 -11 -10z"/>
<path d="M3588 3883 c7 -3 16 -2 19 1 4 3 -2 6 -13 5 -11 0 -14 -3 -6 -6z"/>
<path d="M4481 3874 c0 -11 3 -14 6 -6 3 7 2 16 -1 19 -3 4 -6 -2 -5 -13z"/>
<path d="M2285 3860 c-3 -5 -1 -10 4 -10 6 0 11 5 11 10 0 6 -2 10 -4 10 -3 0
-8 -4 -11 -10z"/>
<path d="M4496 3832 c-2 -4 -1 -32 4 -62 l8 -55 1 63 c1 59 -2 72 -13 54z"/>
<path d="M3095 3820 c-3 -5 -1 -10 4 -10 6 0 11 5 11 10 0 6 -2 10 -4 10 -3 0
-8 -4 -11 -10z"/>
<path d="M1496 3789 c-10 -62 -12 -109 -5 -109 3 0 9 30 12 67 7 70 2 99 -7
42z"/>
<path d="M2430 3754 c0 -8 -4 -13 -8 -10 -4 2 -8 -4 -8 -15 0 -26 3 -24 21 11
9 17 11 30 5 30 -5 0 -10 -7 -10 -16z"/>
<path d="M2385 3674 c-9 -14 -14 -28 -12 -31 3 -3 13 9 22 26 19 38 14 41 -10
5z"/>
<path d="M4511 3586 c0 -48 3 -85 6 -82 7 7 6 156 -1 164 -3 3 -6 -34 -5 -82z"/>
<path d="M1481 3633 c-1 -6 -4 -20 -7 -30 -5 -17 -5 -17 6 0 6 10 9 23 6 30
-3 9 -5 9 -5 0z"/>
<path d="M2360 3621 c0 -7 -4 -9 -10 -6 -6 4 -7 -1 -3 -11 6 -15 7 -15 15 1 6
9 7 19 4 22 -3 4 -6 1 -6 -6z"/>
<path d="M2346 3568 c3 -4 11 -5 19 -1 21 7 19 12 -4 10 -11 0 -18 -5 -15 -9z"/>
<path d="M1486 3495 c3 -38 7 -72 10 -74 8 -8 3 104 -6 124 -5 12 -7 -7 -4
-50z"/>
<path d="M4500 3453 c0 -24 2 -43 4 -43 8 0 12 60 4 72 -4 8 -8 -4 -8 -29z"/>
<path d="M1497 3403 c-4 -3 -7 -11 -7 -17 0 -6 5 -5 12 2 6 6 9 14 7 17 -3 3
-9 2 -12 -2z"/>
<path d="M3550 3401 c0 -6 4 -13 10 -16 6 -3 7 1 4 9 -7 18 -14 21 -14 7z"/>
<path d="M4492 3380 c0 -14 2 -19 5 -12 2 6 2 18 0 25 -3 6 -5 1 -5 -13z"/>
<path d="M4556 3348 c-13 -61 -16 -102 -7 -88 11 18 26 110 17 110 -3 0 -8
-10 -10 -22z"/>
<path d="M1512 3340 c0 -14 2 -19 5 -12 2 6 2 18 0 25 -3 6 -5 1 -5 -13z"/>
<path d="M4482 3330 c0 -14 2 -19 5 -12 2 6 2 18 0 25 -3 6 -5 1 -5 -13z"/>
<path d="M1521 3298 c-1 -9 -4 -25 -7 -35 -5 -15 -4 -15 5 -3 9 13 11 12 11
-4 0 -11 3 -17 6 -14 3 3 1 21 -5 39 -5 19 -10 26 -10 17z"/>
<path d="M4466 3278 c-8 -32 -7 -38 4 -38 5 0 6 7 3 17 -4 10 -2 14 4 10 7 -5
9 0 6 13 -7 26 -9 25 -17 -2z"/>
<path d="M2399 3263 c-13 -16 -12 -17 4 -4 9 7 17 15 17 17 0 8 -8 3 -21 -13z"/>
<path d="M4811 3209 c-48 -29 -62 -32 -186 -33 -102 -1 -114 -3 -157 -29 -67
-40 -88 -86 -88 -189 0 -45 3 -78 7 -75 3 4 12 -2 20 -13 18 -25 35 -25 58 0
17 18 17 20 2 14 -9 -3 -17 -10 -17 -15 0 -19 -28 -8 -35 14 -12 35 -4 159 11
189 27 52 57 62 194 69 115 5 132 8 188 36 34 17 62 29 62 26 0 -3 -14 -34
-31 -69 -45 -96 -80 -115 -218 -124 -107 -6 -110 -7 -155 -44 -45 -37 -56 -59
-36 -71 6 -4 9 -3 8 2 -3 8 38 53 48 53 4 0 12 7 18 15 8 11 37 16 117 18 87
3 112 7 140 25 49 30 74 60 102 119 13 29 27 50 31 46 12 -13 6 13 -10 35 -19
27 -30 27 -73 1z"/>
<path d="M2020 3150 c-9 -6 -10 -10 -3 -10 6 0 15 5 18 10 8 12 4 12 -15 0z"/>
<path d="M2325 3145 c-5 -2 -27 -6 -48 -10 -21 -3 -35 -10 -33 -14 6 -9 96 10
96 21 0 5 -1 8 -2 7 -2 0 -7 -2 -13 -4z"/>
<path d="M2350 3146 c0 -2 7 -7 16 -10 8 -3 12 -2 9 4 -6 10 -25 14 -25 6z"/>
<path d="M4892 3146 c7 -9 -25 -76 -54 -115 -10 -13 -33 -35 -50 -48 -37 -27
-26 -31 14 -5 34 22 60 56 83 107 10 22 20 43 22 47 2 4 -2 10 -9 14 -7 4 -10
4 -6 0z"/>
<path d="M1490 3135 c0 -5 5 -17 10 -25 5 -8 10 -10 10 -5 0 6 -5 17 -10 25
-5 8 -10 11 -10 5z"/>
<path d="M1945 3120 c-3 -6 1 -7 9 -4 18 7 21 14 7 14 -6 0 -13 -4 -16 -10z"/>
<path d="M3968 3123 c6 -2 18 -2 25 0 6 3 1 5 -13 5 -14 0 -19 -2 -12 -5z"/>
<path d="M2175 3110 c-53 -13 -212 -78 -267 -108 -106 -60 -143 -82 -136 -82
10 0 82 34 88 41 9 12 78 37 84 31 3 -3 6 -1 6 5 0 6 20 16 44 22 25 6 52 18
60 27 9 8 16 12 16 8 0 -3 6 -1 13 5 8 6 18 7 22 3 5 -4 5 -2 1 5 -4 7 0 12
11 12 10 -1 32 2 48 6 17 4 35 8 42 8 7 0 14 6 17 14 6 14 -3 15 -49 3z"/>
<path d="M4020 3110 c8 -5 28 -10 44 -10 39 0 30 6 -19 13 -27 4 -35 3 -25 -3z"/>
<path d="M2554 3074 c-33 -19 -63 -39 -68 -44 -5 -5 -17 -5 -29 1 -15 9 -18 8
-12 -2 5 -7 1 -18 -11 -26 -18 -13 -19 -34 -24 -356 -5 -359 -2 -405 39 -485
26 -50 72 -97 121 -122 22 -11 40 -18 40 -15 0 2 -18 14 -39 24 -40 21 -116
100 -105 110 3 3 10 -2 16 -12 14 -26 89 -78 101 -70 6 3 7 1 3 -5 -5 -8 2
-12 21 -13 15 0 39 -2 53 -4 104 -15 1520 -9 1520 7 0 5 7 8 15 5 8 -4 17 -2
20 3 3 5 21 17 40 26 19 9 35 22 35 29 0 7 7 16 15 19 9 3 28 32 43 63 25 55
27 69 33 248 l6 190 -1 -202 c-1 -111 3 -198 8 -194 4 5 6 105 5 223 -4 206
-5 214 -28 248 -59 85 -85 96 -241 105 -118 6 -231 -10 -290 -41 -25 -13 -41
-24 -37 -24 5 0 -5 -12 -23 -26 -37 -32 -57 -68 -76 -141 -18 -71 -18 -89 6
-165 19 -64 50 -102 99 -128 16 -8 8 4 -22 35 -26 26 -47 52 -47 59 0 6 8 1
18 -11 25 -31 112 -74 135 -67 11 3 17 2 14 -2 -3 -5 46 -9 109 -9 69 0 114
-4 114 -10 0 -5 -3 -10 -7 -10 -5 0 -14 -4 -20 -8 -7 -5 -19 -5 -25 0 -14 9
-238 11 -238 3 0 -3 -254 -7 -565 -8 -321 -1 -565 2 -565 7 0 5 -10 7 -22 3
-14 -3 -19 -1 -14 6 4 6 -2 17 -14 24 -22 14 -27 29 -7 26 9 -2 12 54 12 257
l1 260 -6 -255 -6 -255 -1 310 c0 171 3 297 7 280 7 -28 8 -27 9 13 1 27 -3
42 -11 42 -9 0 -9 3 0 12 7 7 12 19 12 28 0 12 -2 12 -9 2 -7 -11 -10 -10 -15
3 -8 22 -8 27 3 21 5 -3 12 1 15 10 3 8 2 12 -4 9 -6 -3 -10 -2 -10 4 0 6 -8
15 -19 20 -14 8 -31 3 -77 -25z m68 -379 l-3 -395 25 -25 25 -25 734 0 c686 0
735 1 749 18 9 9 18 29 20 45 l5 27 -156 0 c-143 0 -161 2 -201 23 -64 32 -84
65 -88 146 -5 91 17 157 69 210 60 60 105 71 292 71 179 0 209 -8 242 -63 18
-29 20 -51 20 -242 l0 -210 -29 -58 c-31 -64 -84 -110 -147 -127 -24 -7 -309
-9 -807 -8 l-769 3 -49 30 c-30 19 -60 49 -79 79 l-30 49 -3 367 -3 368 81 47
c44 26 83 51 86 56 3 5 8 9 12 9 4 0 6 -178 4 -395z m1095 -192 c-3 -10 -5 -2
-5 17 0 19 2 27 5 18 2 -10 2 -26 0 -35z"/>
<path d="M3940 2612 c-16 -13 -22 -29 -22 -57 0 -63 23 -75 148 -75 l104 0 0
69 c0 54 -4 70 -16 75 -9 3 -55 6 -104 6 -69 0 -92 -4 -110 -18z m160 -15 c38
-4 47 -19 36 -63 -6 -23 -10 -24 -79 -24 -80 0 -101 10 -111 52 -10 44 9 48
154 35z"/>
<path d="M4003 2573 c15 -2 39 -2 55 0 15 2 2 4 -28 4 -30 0 -43 -2 -27 -4z"/>
<path d="M3751 2530 c0 -30 3 -61 8 -68 4 -7 6 13 4 45 -6 79 -11 89 -12 23z"/>
<path d="M4190 2510 c0 -29 3 -50 7 -46 7 7 5 87 -3 95 -2 2 -4 -20 -4 -49z"/>
<path d="M3905 2488 c11 -28 45 -37 154 -39 62 -1 115 1 118 5 4 3 -46 6 -109
6 -101 0 -118 2 -142 21 -14 11 -24 15 -21 7z"/>
<path d="M3778 2442 c-4 -12 -2 -24 2 -27 13 -8 18 8 10 29 -6 19 -7 19 -12
-2z"/>
<path d="M4187 2349 c7 -7 15 -10 18 -7 3 3 -2 9 -12 12 -14 6 -15 5 -6 -5z"/>
<path d="M4190 2305 c0 -32 -41 -75 -71 -75 -18 0 -19 -2 -9 -15 14 -17 35
-21 25 -5 -5 9 7 14 27 11 4 0 10 8 13 19 4 11 10 20 15 20 4 0 10 16 12 35 2
19 0 35 -4 35 -4 0 -8 -11 -8 -25z"/>
<path d="M2600 2283 c0 -6 5 -15 10 -18 6 -4 7 -12 4 -18 -4 -7 -4 -9 1 -5 4
4 14 1 22 -7 8 -8 24 -15 36 -15 19 0 18 2 -8 16 -16 8 -38 25 -47 37 -10 12
-18 17 -18 10z"/>
<path d="M2476 2227 c3 -10 9 -15 12 -12 3 3 0 11 -7 18 -10 9 -11 8 -5 -6z"/>
<path d="M2755 2219 c-22 -4 35 -6 127 -6 93 0 166 3 163 5 -7 7 -245 8 -290
1z"/>
<path d="M3075 2221 c29 -13 435 -21 477 -9 13 3 -65 6 -173 7 -108 1 -225 3
-260 6 -42 4 -57 2 -44 -4z"/>
<path d="M3591 2220 c-17 -10 34 -23 60 -15 20 7 27 25 9 25 -5 0 -10 -4 -10
-10 0 -6 -9 -6 -23 -1 -13 5 -29 6 -36 1z"/>
<path d="M3725 2220 c-20 -5 3 -8 67 -11 97 -4 152 1 133 13 -13 8 -162 7
-200 -2z"/>
<path d="M3958 2219 c-13 -3 14 -8 59 -10 45 -2 79 -1 75 3 -10 9 -107 14
-134 7z"/>
<path d="M2496 2201 c-3 -5 2 -15 12 -22 15 -12 16 -12 5 2 -7 9 -10 19 -6 22
3 4 4 7 0 7 -3 0 -8 -4 -11 -9z"/>
<path d="M2658 2203 c7 -3 16 -2 19 1 4 3 -2 6 -13 5 -11 0 -14 -3 -6 -6z"/>
<path d="M2743 2183 c15 -2 37 -2 50 0 12 2 0 4 -28 4 -27 0 -38 -2 -22 -4z"/>
<path d="M4008 2173 c7 -3 16 -2 19 1 4 3 -2 6 -13 5 -11 0 -14 -3 -6 -6z"/>
<path d="M4255 2160 c-4 -6 -10 -8 -14 -6 -4 3 -13 1 -20 -3 -10 -7 -10 -9 2
-14 8 -3 23 3 33 14 9 10 14 19 11 19 -3 0 -9 -5 -12 -10z"/>
<path d="M2541 2144 c6 -7 16 -11 21 -8 11 7 3 17 -18 20 -12 2 -13 -1 -3 -12z"/>
<path d="M2693 2143 c15 -2 37 -2 50 0 12 2 0 4 -28 4 -27 0 -38 -2 -22 -4z"/>
<path d="M2818 2143 c7 -3 16 -2 19 1 4 3 -2 6 -13 5 -11 0 -14 -3 -6 -6z"/>
<path d="M3013 2113 c9 -2 23 -2 30 0 6 3 -1 5 -18 5 -16 0 -22 -2 -12 -5z"/>
<path d="M2778 2103 c6 -2 18 -2 25 0 6 3 1 5 -13 5 -14 0 -19 -2 -12 -5z"/>
<path d="M3978 2103 c6 -2 18 -2 25 0 6 3 1 5 -13 5 -14 0 -19 -2 -12 -5z"/>
<path d="M1798 3048 c-13 -13 -17 -18 -8 -12 8 6 24 16 35 22 11 6 15 12 8 12
-7 0 -22 -10 -35 -22z"/>
<path d="M4000 3050 c-46 -35 -55 -170 -14 -210 15 -14 15 -13 9 8 -6 21 -5
23 13 13 23 -12 131 -15 148 -3 6 4 17 18 24 32 l14 25 7 -25 c5 -20 7 -15 8
20 2 42 1 67 -1 98 -1 6 -8 12 -15 12 -8 0 -12 4 -9 9 21 33 -143 52 -184 21z
m161 -27 c18 -22 17 -107 -2 -129 -9 -11 -30 -14 -88 -12 l-76 3 -3 57 c-4 78
16 98 96 98 44 0 63 -4 73 -17z"/>
<path d="M4622 2953 c14 -3 15 -7 5 -18 -6 -7 -15 -11 -19 -8 -5 2 -8 -1 -8
-7 0 -6 -5 -8 -10 -5 -6 3 -13 -1 -16 -9 -3 -8 -14 -18 -24 -21 -62 -20 -85
-85 -79 -225 2 -41 2 -197 1 -346 l-2 -271 24 -27 c19 -23 24 -25 29 -12 4 9
19 22 34 28 15 7 34 21 42 31 7 10 19 16 27 13 8 -3 13 -2 13 2 -2 14 14 52
21 52 5 0 18 24 29 54 18 49 20 82 23 415 l3 361 -55 -1 c-30 -1 -47 -3 -38
-6z m70 -350 c-3 -402 -6 -417 -85 -496 -53 -53 -98 -91 -100 -85 -1 2 -1 185
1 408 l3 405 87 52 c48 29 89 52 92 53 3 0 4 -152 2 -337z m-195 130 c-3 -10
-5 -4 -5 12 0 17 2 24 5 18 2 -7 2 -21 0 -30z"/>
<path d="M4650 2879 c0 -5 5 -7 10 -4 6 3 10 8 10 11 0 2 -4 4 -10 4 -5 0 -10
-5 -10 -11z"/>
<path d="M4605 2860 c-3 -5 -2 -10 4 -10 5 0 13 5 16 10 3 6 2 10 -4 10 -5 0
-13 -4 -16 -10z"/>
<path d="M4558 2834 c-16 -8 -28 -16 -28 -18 0 -9 40 7 51 20 14 17 11 17 -23
-2z"/>
<path d="M4532 2775 c0 -16 2 -22 5 -12 2 9 2 23 0 30 -3 6 -5 -1 -5 -18z"/>
<path d="M4530 2706 c0 -31 6 -34 13 -6 3 11 1 23 -4 26 -5 3 -9 -6 -9 -20z"/>
<path d="M4530 2490 c0 -101 3 -181 6 -177 7 7 6 348 -1 355 -3 3 -5 -77 -5
-178z"/>
<path d="M4530 2155 c0 -91 1 -97 18 -84 39 29 74 65 83 84 9 18 9 19 -4 3 -8
-10 -18 -14 -22 -10 -5 4 -5 2 -2 -4 7 -12 -26 -47 -47 -50 -10 -1 -13 17 -14
73 -1 41 -3 78 -6 81 -4 3 -6 -39 -6 -93z"/>
<path d="M4656 2233 c-6 -14 -5 -15 5 -6 7 7 10 15 7 18 -3 3 -9 -2 -12 -12z"/>
<path d="M4725 2566 c0 -195 3 -349 7 -343 10 16 10 697 1 697 -5 0 -8 -159
-8 -354z"/>
<path d="M1845 2862 c-6 -4 -21 -20 -33 -37 -19 -24 -23 -39 -20 -86 1 -32 6
-55 10 -53 5 3 8 1 8 -4 0 -4 14 -23 31 -40 24 -24 27 -32 15 -32 -9 0 -31 -8
-49 -17 -18 -9 -36 -16 -40 -15 -5 1 -6 -2 -2 -8 9 -14 -8 -13 -25 3 -12 10
-12 9 -1 -5 11 -15 10 -22 -8 -47 -12 -16 -21 -34 -21 -41 0 -6 -4 -8 -10 -5
-5 3 -10 -4 -11 -17 0 -13 -2 -67 -4 -121 -3 -82 0 -105 17 -145 22 -51 55
-92 72 -91 6 0 1 7 -11 16 -39 27 -25 35 15 9 20 -14 49 -28 65 -31 15 -4 27
-11 27 -17 0 -5 5 -6 11 -3 6 4 48 8 95 9 73 1 84 -1 84 -16 0 -21 -70 -44
-81 -26 -4 7 -27 8 -65 4 -33 -3 -86 -6 -119 -5 -33 0 -69 -1 -80 -2 -51 -5
-117 1 -129 10 -7 6 -15 8 -19 5 -9 -9 -57 69 -57 93 0 13 -5 23 -11 23 -6 0
-9 -7 -5 -15 3 -8 1 -15 -4 -15 -11 0 -12 3 -15 72 -1 26 2 45 7 42 4 -3 8
-17 9 -32 l1 -27 7 25 c8 29 3 62 -9 55 -14 -9 -23 55 -10 70 8 10 11 34 8 66
-3 30 -2 45 3 37 14 -21 11 44 -3 75 -16 34 -54 36 -94 5 -16 -13 -25 -17 -21
-8 5 8 0 5 -9 -7 -9 -13 -24 -23 -33 -23 -18 0 -90 -65 -93 -84 -5 -44 -5
-245 1 -261 22 -57 30 -89 24 -98 -3 -6 -1 -7 5 -3 7 4 12 1 12 -10 0 -25 48
-108 71 -123 17 -10 14 -2 -11 36 l-33 48 48 -53 c38 -42 121 -104 145 -108 3
0 24 -6 48 -13 53 -15 482 -17 529 -3 17 6 34 8 37 4 3 -3 6 -1 6 5 0 6 10 13
23 17 13 3 35 16 50 30 14 13 28 22 31 19 2 -3 10 6 17 19 6 12 15 25 19 28 4
3 17 31 29 63 17 46 21 83 23 180 1 83 3 99 5 50 2 -42 8 -73 14 -73 7 0 10
53 7 158 -3 149 -5 159 -31 207 -15 27 -27 47 -27 42 0 -4 -8 1 -18 11 -11 9
-17 20 -15 23 1 4 -9 10 -25 15 -38 11 -41 12 -93 13 -38 1 -48 5 -52 21 -3
11 -1 20 4 20 5 0 9 -4 9 -8 0 -5 24 -10 53 -11 42 -1 57 2 71 18 10 11 23 18
27 15 5 -3 9 4 9 15 0 14 5 19 16 14 13 -5 15 0 11 28 -3 19 -6 36 -6 39 -1 3
-6 -2 -11 -10 -6 -9 -10 -10 -10 -3 0 6 4 15 10 18 13 8 -15 61 -39 75 -25 13
-148 13 -156 0 -4 -6 -11 -7 -17 -4 -6 4 -8 2 -5 -3 13 -20 -21 -22 -39 -2
-14 15 -30 19 -83 19 -36 0 -71 -4 -76 -8z m153 -34 c14 -14 16 -97 2 -118
-13 -21 -148 -31 -167 -12 -19 19 -17 101 4 124 12 14 31 18 83 18 38 0 71 -5
78 -12z m220 0 c16 -16 15 -100 0 -121 -19 -24 -146 -27 -163 -3 -18 23 -9
107 12 124 21 15 135 16 151 0z m-164 -171 c40 -16 8 -25 -88 -26 -82 -1 -106
2 -116 14 -15 18 -7 31 12 19 7 -5 37 -10 66 -12 40 -2 54 0 58 12 3 9 10 13
15 10 5 -3 12 2 16 12 6 15 7 15 14 -3 4 -11 14 -23 23 -26z m149 -71 c18 -7
45 -28 61 -46 l27 -33 -3 -231 -3 -231 -30 -54 c-36 -66 -93 -115 -156 -136
-40 -14 -90 -16 -301 -13 -250 3 -254 3 -310 30 -31 14 -77 46 -103 69 -84 78
-113 165 -117 351 -1 70 0 129 2 131 12 9 176 107 180 107 3 0 5 -84 5 -188 0
-215 8 -243 84 -297 l43 -30 226 -3 c124 -2 237 -1 249 3 24 6 46 34 58 73 l6
22 -131 0 c-172 0 -218 18 -261 102 -24 47 -26 174 -4 240 19 54 78 114 131
133 54 19 302 20 347 1z m-713 -99 c0 -18 -2 -19 -10 -7 -13 20 -13 43 0 35 6
-3 10 -16 10 -28z m827 -79 c-3 -7 -5 -2 -5 12 0 14 2 19 5 13 2 -7 2 -19 0
-25z m0 -55 c-3 -10 -5 -4 -5 12 0 17 2 24 5 18 2 -7 2 -21 0 -30z m-1070
-195 c-3 -7 -5 -2 -5 12 0 14 2 19 5 13 2 -7 2 -19 0 -25z"/>
<path d="M1937 2431 c-33 -10 -47 -35 -47 -86 0 -76 14 -85 131 -85 l94 0 -1
80 c-1 44 -4 83 -7 86 -6 6 -151 11 -170 5z m144 -30 c3 -1 6 -25 5 -53 l-1
-53 -63 -5 c-65 -5 -76 -1 -85 35 -4 17 -5 16 -6 -5 -1 -19 -3 -22 -10 -11
-12 19 -4 83 12 93 9 7 72 6 148 -1z"/>
<path d="M1292 2315 c0 -16 2 -22 5 -12 2 9 2 23 0 30 -3 6 -5 -1 -5 -18z"/>
<path d="M1880 2260 c0 -5 5 -10 11 -10 5 0 7 5 4 10 -3 6 -8 10 -11 10 -2 0
-4 -4 -4 -10z"/>
<path d="M2136 2245 c-11 -8 -15 -15 -9 -15 6 0 16 7 23 15 16 19 11 19 -14 0z"/>
<path d="M2078 2233 c6 -2 18 -2 25 0 6 3 1 5 -13 5 -14 0 -19 -2 -12 -5z"/>
<path d="M2028 2223 c7 -3 16 -2 19 1 4 3 -2 6 -13 5 -11 0 -14 -3 -6 -6z"/>
<path d="M1453 2075 c0 -8 4 -12 8 -10 4 3 9 -2 12 -9 3 -8 16 -20 29 -27 18
-9 15 -3 -11 25 -19 20 -36 36 -36 36 -1 0 -2 -7 -2 -15z"/>
<path d="M2132 2083 c5 -19 -34 -72 -62 -83 -14 -5 -106 -14 -205 -18 l-180
-9 145 -3 c80 -2 152 -2 160 -1 8 2 26 3 40 2 35 -1 70 8 67 17 -4 14 41 63
46 50 3 -7 4 -1 3 15 -2 15 -6 30 -10 35 -4 4 -6 2 -4 -5z"/>
<path d="M2261 2074 c0 -11 3 -14 6 -6 3 7 2 16 -1 19 -3 4 -6 -2 -5 -13z"/>
<path d="M1330 2051 c0 -6 4 -13 10 -16 6 -3 7 1 4 9 -7 18 -14 21 -14 7z"/>
<path d="M1530 2016 c0 -3 14 -13 32 -22 35 -18 80 -26 72 -13 -3 5 -14 9 -25
9 -11 0 -33 7 -49 15 -17 9 -30 13 -30 11z"/>
<path d="M1360 2001 c0 -10 19 -25 25 -20 1 2 -3 10 -11 17 -8 7 -14 8 -14 3z"/>
<path d="M1658 1983 c7 -3 16 -2 19 1 4 3 -2 6 -13 5 -11 0 -14 -3 -6 -6z"/>
<path d="M2214 1982 c4 -7 3 -12 -2 -12 -5 0 -9 -7 -9 -15 0 -20 4 -19 17 4 7
14 7 22 -2 27 -7 4 -8 3 -4 -4z"/>
<path d="M2175 1929 c-4 -6 -5 -12 -2 -15 2 -3 7 2 10 11 7 17 1 20 -8 4z"/>
<path d="M2131 1910 c-7 -4 -12 -13 -10 -19 3 -8 10 -8 23 2 21 15 9 31 -13
17z"/>
<path d="M1793 1853 c9 -2 23 -2 30 0 6 3 -1 5 -18 5 -16 0 -22 -2 -12 -5z"/>
<path d="M1903 1853 c26 -2 67 -2 90 0 23 2 2 3 -48 3 -49 0 -68 -1 -42 -3z"/>
<path d="M4357 2170 c-3 -14 -16 -36 -28 -49 -13 -13 -16 -22 -8 -19 18 6 52
64 47 80 -3 7 -7 2 -11 -12z"/>
<path d="M4675 2110 c-3 -5 -2 -10 4 -10 5 0 13 5 16 10 3 6 2 10 -4 10 -5 0
-13 -4 -16 -10z"/>
<path d="M1802 2074 c9 -9 21 -15 27 -13 6 2 -2 10 -17 17 -25 11 -25 11 -10
-4z"/>
<path d="M4251 2059 c-29 -16 -49 -29 -45 -29 13 0 91 29 80 30 -6 0 -1 7 10
15 28 21 16 17 -45 -16z"/>
<path d="M4650 2068 c-12 -22 -12 -22 6 -6 10 10 15 20 12 24 -4 3 -12 -5 -18
-18z"/>
<path d="M2321 2024 c-4 -70 -75 -161 -162 -209 l-54 -30 -275 0 -275 0 -52
26 c-29 14 -53 23 -53 19 0 -9 34 -26 88 -45 50 -17 502 -23 564 -7 53 14 120
55 156 96 38 43 74 123 69 151 -4 19 -4 19 -6 -1z"/>
<path d="M4610 2030 c-8 -5 -10 -10 -5 -10 6 0 17 5 25 10 8 5 11 10 5 10 -5
0 -17 -5 -25 -10z"/>
<path d="M2633 2018 c7 -4 194 -7 417 -6 223 1 365 3 315 5 -218 7 -742 7
-732 1z"/>
<path d="M3815 2020 l-350 -5 350 -3 c213 -1 356 2 365 8 13 9 13 9 0 8 -8 -2
-172 -5 -365 -8z"/>
<path d="M4551 1990 c-13 -11 -19 -20 -14 -20 6 0 20 9 33 20 30 26 12 26 -19
0z"/>
<path d="M2293 1743 c-7 -2 -13 -12 -13 -22 0 -9 -7 -26 -15 -37 -8 -10 -19
-36 -25 -56 -6 -20 -16 -43 -23 -50 -22 -22 -20 -76 3 -88 22 -12 73 -3 64 11
-3 5 0 9 6 9 6 0 9 4 6 8 -3 5 9 8 27 8 22 0 38 -7 50 -23 21 -26 58 -30 76
-9 14 16 7 66 -10 77 -7 4 -9 18 -5 35 5 21 4 25 -4 14 -9 -13 -10 -13 -11 0
-1 8 -1 21 0 28 1 6 -2 12 -7 12 -6 0 -13 11 -16 25 -13 50 -59 76 -103 58z
m101 -121 c26 -56 46 -107 46 -111 0 -16 -50 2 -55 20 -9 28 -105 28 -112 0
-5 -19 -53 -36 -53 -19 0 5 14 41 31 81 17 40 37 86 45 104 25 58 48 41 98
-75z"/>
<path d="M2334 1677 c-9 -10 -34 -72 -34 -83 0 -2 14 -4 31 -4 26 0 30 3 23
18 -4 9 -8 32 -8 50 0 17 0 32 0 32 -1 -1 -6 -6 -12 -13z"/>
<path d="M2709 1737 c-11 -8 -17 -32 -19 -77 -6 -110 -4 -127 13 -154 31 -47
83 -24 79 35 -2 27 0 29 30 29 51 0 73 25 58 65 -5 13 -1 28 11 44 19 24 26
67 10 56 -5 -3 -12 -1 -16 5 -9 14 -147 12 -166 -3z m161 -35 c0 -23 -3 -24
-55 -20 -55 3 -55 3 -55 -25 0 -28 1 -28 48 -26 41 3 47 1 47 -16 0 -17 -7
-20 -48 -20 l-47 0 0 -45 c0 -39 -3 -46 -20 -47 -19 -2 -20 4 -20 110 l0 112
75 0 c72 0 75 -1 75 -23z m-173 -144 c-3 -7 -5 -2 -5 12 0 14 2 19 5 13 2 -7
2 -19 0 -25z"/>
<path d="M3192 1730 c-10 -11 -25 -38 -32 -60 -7 -22 -16 -38 -19 -35 -4 2 -8
-8 -9 -23 -1 -14 -7 -29 -13 -33 -6 -3 -10 -9 -10 -13 4 -29 -1 -46 -11 -40
-6 4 -3 -5 8 -19 24 -33 45 -34 75 -2 30 31 59 32 93 0 30 -28 39 -30 66 -15
23 12 21 64 -4 102 -9 13 -13 27 -10 31 4 3 -3 18 -15 33 -11 15 -21 32 -21
38 0 20 -39 56 -60 56 -11 0 -28 -9 -38 -20z m99 -101 c55 -132 54 -129 29
-129 -12 0 -25 10 -32 25 -10 22 -18 25 -60 25 -41 0 -50 -3 -57 -23 -8 -21
-51 -36 -51 -18 0 8 15 43 72 172 32 72 52 62 99 -52z"/>
<path d="M3216 1646 c-3 -13 -9 -31 -12 -40 -5 -13 1 -16 26 -16 27 0 31 3 25
18 -4 9 -10 27 -12 40 -7 29 -19 28 -27 -2z"/>
<path d="M3630 1733 c-22 -15 -42 -38 -46 -53 0 -3 -3 -12 -7 -20 -11 -30 -15
-90 -6 -95 5 -3 6 2 3 12 -5 15 -4 16 5 3 6 -8 11 -23 11 -32 0 -10 19 -28 43
-42 37 -22 54 -25 113 -23 87 4 94 8 84 52 -5 20 -4 33 1 29 5 -3 9 22 9 55 0
34 -4 61 -9 61 -5 0 -12 8 -15 18 -15 47 -135 70 -186 35z m130 -18 c32 -17
60 -61 60 -95 0 -12 -7 -34 -15 -49 -13 -26 -13 -30 0 -41 8 -7 15 -16 15 -21
0 -13 -48 -11 -52 2 -3 9 -10 9 -26 0 -51 -27 -132 19 -148 84 -10 38 15 94
50 116 37 23 77 24 116 4z"/>
<path d="M3659 1669 c-29 -29 -23 -85 13 -112 32 -24 69 -17 47 9 -10 13 -10
17 2 25 19 12 29 11 29 -1 0 -5 5 -10 10 -10 6 0 10 16 10 35 0 66 -67 98
-111 54z m71 -22 c20 -16 22 -34 5 -34 -8 0 -12 5 -8 11 3 6 -6 -2 -19 -18
-37 -43 -66 -15 -36 34 14 23 36 25 58 7z"/>
<path d="M4165 1652 c-38 -1 -77 -6 -85 -10 -10 -5 477 -21 507 -17 1 0 -2 6
-6 13 -8 13 -243 21 -416 14z"/>
<path d="M1415 1640 c-11 -5 -15 -9 -8 -9 6 -1 9 -9 6 -20 -3 -10 0 -21 5 -25
5 -3 136 -6 290 -7 228 -2 283 1 294 12 12 12 -28 14 -279 14 -190 0 -292 4
-290 10 1 6 106 10 290 10 234 0 283 2 260 12 -33 14 -536 17 -568 3z"/>
<path d="M4073 1593 c8 -9 71 -13 217 -14 278 -1 287 -1 293 14 3 9 -52 12
-259 12 -206 0 -261 -3 -251 -12z"/>
<path d="M1674 1335 c-12 -9 -31 -12 -50 -9 -33 6 -71 -8 -91 -35 -15 -19 -17
-58 -3 -66 13 -8 13 -45 0 -45 -19 0 -42 -69 -36 -105 4 -19 10 -34 14 -34 4
1 9 0 12 -1 19 -7 40 -7 40 1 0 5 16 2 36 -6 47 -19 218 -21 212 -2 -3 8 -36
13 -105 15 l-101 3 3 27 c4 48 16 72 45 87 37 19 83 19 120 0 30 -16 37 -32
42 -95 3 -30 7 -35 28 -35 14 0 33 4 44 8 12 6 21 5 27 -4 6 -9 9 13 8 59 -2
60 -6 76 -21 85 -18 12 -25 37 -10 37 4 0 6 16 4 35 -2 19 -8 35 -14 35 -5 0
-6 5 -3 10 9 14 -44 32 -72 25 -13 -3 -36 1 -53 10 -36 19 -51 19 -76 0z m72
-23 c13 -9 34 -46 34 -62 0 -20 -49 -60 -74 -60 -55 0 -82 83 -38 117 19 14
61 17 78 5z m-117 -11 c10 -6 10 -10 1 -16 -6 -4 -14 -4 -17 -1 -11 10 -43
-15 -43 -34 0 -22 17 -35 44 -35 11 0 21 -6 23 -12 6 -18 -38 -16 -65 3 -53
37 2 130 57 95z m223 -8 c25 -23 23 -68 -4 -87 -27 -19 -71 -21 -66 -4 3 7 15
13 28 13 48 0 52 68 4 71 -35 2 -39 4 -24 14 22 14 41 12 62 -7z m-32 -43 c0
-5 -4 -10 -10 -10 -5 0 -10 5 -10 10 0 6 5 10 10 10 6 0 10 -4 10 -10z m-195
-80 c-3 -5 -17 -10 -30 -10 -30 0 -55 -25 -55 -54 0 -19 4 -22 25 -18 19 3 25
0 25 -12 0 -14 -8 -17 -37 -14 -37 3 -38 4 -37 42 1 28 8 45 24 58 23 19 96
26 85 8z m253 -6 c17 -12 22 -25 22 -60 0 -44 0 -44 -35 -44 -26 0 -35 4 -35
16 0 12 7 15 25 12 22 -5 25 -2 25 21 0 34 -17 51 -51 51 -15 0 -31 5 -34 10
-10 16 58 12 83 -6z m-24 -45 c-3 -5 -10 -7 -15 -3 -5 3 -7 10 -3 15 3 5 10 7
15 3 5 -3 7 -10 3 -15z m-269 -7 c-3 -3 -11 0 -18 7 -9 10 -8 11 6 5 10 -3 15
-9 12 -12z"/>
<path d="M1682 1288 c-17 -17 -15 -53 3 -68 12 -10 21 -10 40 -2 40 19 29 82
-15 82 -9 0 -21 -5 -28 -12z m48 -38 c0 -5 -9 -10 -20 -10 -11 0 -20 5 -20 10
0 6 9 10 20 10 11 0 20 -4 20 -10z"/>
<path d="M3716 1335 c4 -10 -7 -12 -48 -9 -48 4 -57 2 -78 -21 -26 -28 -26
-27 -42 -132 -12 -82 -2 -123 36 -141 27 -12 82 8 103 37 22 33 137 11 116
-22 -3 -5 -1 -7 5 -3 6 3 14 2 17 -4 10 -16 85 -9 85 8 0 7 4 11 9 7 17 -10
21 29 12 96 -5 35 -7 67 -4 72 2 4 -3 14 -11 23 -9 8 -16 22 -16 30 0 8 -5 14
-11 14 -5 0 -7 5 -3 12 4 6 3 8 -4 4 -5 -3 -12 -1 -14 5 -2 6 -24 12 -48 14
-25 1 -59 7 -77 13 -25 8 -31 8 -27 -3z m34 -30 c0 -22 3 -24 19 -15 37 19 89
12 106 -14 20 -29 40 -155 31 -190 -11 -46 -72 -46 -96 -1 -12 22 -20 25 -67
25 -48 0 -57 -3 -80 -30 -29 -35 -62 -39 -88 -10 -17 19 -17 26 -5 107 9 56
20 93 32 105 20 20 78 24 109 8 16 -9 19 -7 19 15 0 14 5 25 10 25 6 0 10 -11
10 -25z"/>
<path d="M3622 1268 c-14 -17 -30 -83 -34 -137 -2 -33 1 -46 15 -55 15 -9 23
-5 49 27 28 35 34 37 84 37 51 0 58 -3 89 -37 32 -35 36 -37 51 -21 15 15 16
25 5 89 -16 101 -24 112 -69 105 -92 -16 -110 -17 -116 -7 -10 15 -61 14 -74
-1z m58 -38 c0 -11 5 -19 11 -17 6 1 14 -4 16 -10 3 -7 -2 -13 -11 -13 -9 0
-16 -7 -16 -15 0 -8 -7 -15 -16 -15 -10 0 -14 6 -11 14 3 8 -2 16 -15 19 -22
6 -16 27 7 27 9 0 12 6 9 15 -4 9 0 15 10 15 9 0 16 -8 16 -20z m145 11 c7
-12 -12 -24 -25 -16 -11 7 -4 25 10 25 5 0 11 -4 15 -9z m-71 -13 c-11 -17
-12 -48 -2 -42 4 3 8 -4 8 -15 0 -25 -15 -28 -24 -5 -3 8 -11 12 -17 8 -8 -5
-9 -2 -2 11 6 10 8 26 6 36 -4 14 0 19 16 19 15 0 20 -4 15 -12z m38 -23 c0
-5 -5 -11 -11 -13 -6 -2 -11 4 -11 13 0 9 5 15 11 13 6 -2 11 -8 11 -13z m58
0 c0 -8 -4 -15 -9 -15 -13 0 -22 16 -14 24 11 11 23 6 23 -9z m-203 -69 c-9
-26 -32 -10 -32 22 l0 33 18 -22 c10 -12 16 -27 14 -33z m178 45 c7 -12 -12
-24 -25 -16 -11 7 -4 25 10 25 5 0 11 -4 15 -9z m33 -38 c3 -36 2 -37 -17 -19
-18 16 -18 19 -3 37 9 10 17 19 17 19 1 0 2 -17 3 -37z"/>
<path d="M2284 1305 c-47 -47 -57 -101 -25 -139 7 -9 10 -16 7 -16 -4 0 4 -11
16 -24 13 -13 26 -21 31 -19 4 2 7 0 7 -4 0 -5 20 -26 45 -47 37 -30 49 -35
60 -26 8 7 21 10 29 7 11 -4 13 -1 9 10 -4 11 -2 14 5 9 7 -4 12 -1 12 8 0 9
7 16 15 16 8 0 15 4 15 9 0 5 16 26 35 47 33 36 35 42 34 101 -1 34 -6 60 -10
57 -5 -3 -9 0 -9 6 0 6 -4 8 -10 5 -5 -3 -10 -2 -10 4 0 18 -65 33 -96 21 -15
-6 -40 -8 -54 -4 -58 15 -72 13 -106 -21z m116 -7 c15 -10 22 -10 32 0 18 18
72 15 97 -5 31 -26 38 -85 14 -122 -19 -31 -118 -121 -132 -121 -5 0 -38 28
-75 63 -61 58 -66 65 -66 105 0 74 70 117 130 80z"/>
<path d="M2310 1270 c-37 -37 -27 -75 37 -136 31 -30 60 -54 65 -54 4 0 32 24
63 53 45 42 57 58 57 85 2 62 -59 94 -97 52 l-18 -20 -22 20 c-27 25 -59 26
-85 0z m62 -25 c3 3 11 -1 17 -9 11 -13 16 -13 41 6 20 14 36 19 55 14 14 -4
23 -11 20 -16 -3 -6 -1 -10 4 -10 6 0 11 -4 11 -10 0 -5 -7 -10 -15 -10 -8 0
-15 -7 -15 -15 0 -13 -25 -43 -62 -73 -14 -11 -20 -10 -37 9 -12 13 -21 19
-21 14 0 -5 -13 9 -29 31 -21 27 -26 42 -19 51 5 7 7 16 4 22 -10 15 18 20 30
5 6 -8 13 -11 16 -9z"/>
<path d="M4185 1320 c-8 -13 4 -50 16 -50 5 0 9 -9 9 -19 0 -11 5 -23 10 -26
6 -4 8 -16 5 -26 -4 -11 0 -35 9 -54 12 -24 14 -40 7 -58 -8 -19 -6 -28 7 -40
27 -23 46 -26 65 -9 26 23 50 25 43 4 -5 -13 -2 -12 9 2 13 17 19 16 17 -4 -1
-11 54 -10 76 2 15 8 20 17 16 30 -4 13 0 18 13 19 10 0 13 3 6 6 -15 5 -18
53 -4 53 5 0 8 16 6 35 -2 19 1 35 6 35 11 0 12 40 1 56 -11 17 -72 35 -72 22
0 -18 -151 -4 -162 16 -10 18 -73 23 -83 6z m65 -25 c9 -25 11 -25 126 -25 95
0 115 -2 111 -14 -3 -8 -11 -41 -17 -74 l-12 -59 -98 -1 -98 -1 -7 37 c-21
117 -27 132 -46 132 -10 0 -19 7 -19 15 0 27 49 18 60 -10z m60 -200 c17 -20
5 -45 -20 -45 -23 0 -35 22 -26 45 7 19 30 19 46 0z m135 -15 c0 -18 -6 -26
-22 -28 -18 -3 -23 1 -23 21 0 28 9 39 30 35 9 -2 15 -14 15 -28z m-60 10 c-3
-5 -17 -10 -31 -10 -13 0 -24 5 -24 10 0 6 14 10 31 10 17 0 28 -4 24 -10z"/>
<path d="M4263 1233 c3 -10 8 -34 11 -53 l6 -35 77 2 c83 1 82 0 97 71 l8 32
-102 0 c-92 0 -101 -2 -97 -17z m161 -20 c-4 -45 -3 -45 -52 -42 -26 1 -53 -1
-60 -5 -8 -5 -10 -2 -6 8 3 9 1 16 -5 16 -6 0 -11 8 -11 18 0 14 10 17 68 17
47 0 67 -4 66 -12z"/>
<path d="M4280 1080 c0 -5 5 -10 10 -10 6 0 10 5 10 10 0 6 -4 10 -10 10 -5 0
-10 -4 -10 -10z"/>
<path d="M2941 1277 c-25 -22 -51 -49 -57 -60 -9 -15 -13 -17 -16 -6 -3 8 -5
0 -6 -18 -2 -61 98 -141 187 -150 33 -3 58 3 98 22 29 13 53 30 53 36 0 6 7 9
15 5 9 -3 15 0 15 9 0 8 5 15 10 15 6 0 10 7 10 15 0 8 4 15 9 15 15 0 6 49
-13 71 -9 11 -22 17 -28 13 -6 -4 -8 -3 -4 4 9 15 -39 50 -86 62 -21 6 -62 10
-90 9 -43 -2 -58 -9 -97 -42z m193 8 c18 -9 52 -36 77 -61 l44 -46 -51 -47
c-57 -52 -118 -76 -167 -65 -41 8 -110 56 -136 92 l-20 29 42 41 c23 22 56 48
72 56 38 20 98 20 139 1z"/>
<path d="M3005 1261 c-22 -10 -53 -32 -69 -49 l-28 -30 23 -25 c82 -86 184
-88 262 -5 l28 31 -28 30 c-31 32 -96 67 -128 67 -11 0 -38 -9 -60 -19z m105
-31 c41 -41 13 -110 -45 -110 -58 0 -86 69 -45 110 11 11 31 20 45 20 14 0 34
-9 45 -20z m-128 -55 c3 -14 2 -25 -2 -25 -12 0 -40 36 -33 43 14 15 31 6 35
-18z m198 14 c0 -6 -10 -23 -22 -37 -13 -17 -19 -20 -15 -9 4 10 7 27 7 38 0
10 7 19 15 19 8 0 15 -5 15 -11z"/>
<path d="M3048 1223 c-38 -10 -28 -83 12 -83 22 0 50 25 50 45 0 15 -27 46
-38 44 -4 -1 -15 -3 -24 -6z m22 -39 c0 -8 -4 -12 -10 -9 -5 3 -10 10 -10 16
0 5 5 9 10 9 6 0 10 -7 10 -16z"/>
<path d="M3411 1304 c0 -11 3 -14 6 -6 3 7 2 16 -1 19 -3 4 -6 -2 -5 -13z"/>
<path d="M2706 1223 c-3 -49 -2 -104 3 -123 7 -26 9 -5 10 88 1 67 -1 122 -3
122 -2 0 -6 -39 -10 -87z"/>
<path d="M3382 1280 c0 -19 2 -27 5 -17 2 9 2 25 0 35 -3 9 -5 1 -5 -18z"/>
<path d="M4072 1290 c0 -14 2 -19 5 -12 2 6 2 18 0 25 -3 6 -5 1 -5 -13z"/>
<path d="M4328 1303 c7 -3 16 -2 19 1 4 3 -2 6 -13 5 -11 0 -14 -3 -6 -6z"/>
<path d="M2065 1211 c0 -49 3 -87 8 -84 9 5 8 132 -1 155 -4 10 -7 -23 -7 -71z"/>
<path d="M3414 1160 c0 -63 1 -89 3 -57 2 31 2 83 0 115 -2 31 -3 5 -3 -58z"/>
<path d="M4039 1238 c-3 -57 1 -172 6 -177 3 -2 5 44 5 102 0 59 -2 107 -5
107 -3 0 -6 -15 -6 -32z"/>
<path d="M2104 1160 c0 -58 1 -81 3 -52 2 28 2 76 0 105 -2 28 -3 5 -3 -53z"/>
<path d="M4073 1215 c0 -27 2 -38 4 -22 2 15 2 37 0 50 -2 12 -4 0 -4 -28z"/>
<path d="M3383 1175 c0 -33 2 -45 4 -27 2 18 2 45 0 60 -2 15 -4 0 -4 -33z"/>
<path d="M2733 1171 c2 -51 21 -61 30 -16 2 14 0 22 -4 19 -5 -3 -9 6 -9 20 0
14 -4 26 -10 26 -5 0 -9 -22 -7 -49z"/>
<path d="M2761 1204 c0 -11 3 -14 6 -6 3 7 2 16 -1 19 -3 4 -6 -2 -5 -13z"/>
<path d="M4093 1170 c0 -25 2 -35 4 -22 2 12 2 32 0 45 -2 12 -4 2 -4 -23z"/>
<path d="M1655 1143 c-18 -10 -25 -22 -25 -43 l0 -30 80 0 c76 0 80 1 80 23
-1 58 -70 83 -135 50z m58 -19 c9 -1 17 2 17 7 0 5 7 6 15 3 15 -6 21 -33 8
-35 -46 -4 -91 -4 -89 1 2 3 6 14 10 25 4 11 10 15 14 10 4 -6 15 -11 25 -11z"/>
<path d="M4073 1110 c0 -30 2 -43 4 -27 2 15 2 39 0 55 -2 15 -4 2 -4 -28z"/>
<path d="M2072 1085 c0 -16 2 -22 5 -12 2 9 2 23 0 30 -3 6 -5 -1 -5 -18z"/>
<path d="M2836 871 c-10 -11 -18 -25 -19 -33 -2 -7 -9 -28 -16 -46 -13 -30
-12 -36 6 -60 15 -21 30 -28 64 -30 28 -2 52 -11 67 -24 12 -12 22 -18 22 -14
0 5 7 3 15 -4 10 -9 15 -9 15 -1 0 6 6 11 14 11 8 0 16 6 18 13 5 14 186 19
204 5 7 -5 14 -3 18 7 3 8 11 15 18 15 9 0 9 -3 -2 -10 -8 -5 -12 -12 -8 -15
3 -4 18 1 33 11 22 15 26 23 24 58 -2 23 1 43 7 46 14 7 17 -89 3 -106 -6 -8
-20 -14 -30 -14 -11 0 -19 -7 -19 -16 0 -13 6 -15 27 -9 39 9 52 33 53 91 0
67 -18 85 -61 60 -29 -17 -34 -14 -30 22 3 21 -19 42 -43 42 -26 0 -46 -18
-46 -40 0 -9 -6 -23 -12 -31 -7 -8 -12 -13 -11 -11 1 2 -6 12 -15 22 -17 18
-76 34 -66 19 3 -5 1 -9 -5 -9 -6 0 -19 -9 -30 -21 -19 -21 -19 -21 -25 -1
-11 32 -31 33 -50 1 -20 -34 -36 -38 -36 -9 0 11 -4 20 -9 20 -6 0 -8 9 -6 20
2 11 -1 20 -7 20 -5 0 -8 7 -4 15 6 17 -5 20 -21 4 -8 -8 -13 -7 -18 2 -6 8
-4 10 5 4 9 -5 11 -4 6 3 -9 15 -10 15 -30 -7z m44 -35 c0 -8 -11 -13 -25 -13
-37 0 -34 21 5 24 11 1 20 -4 20 -11z m330 -7 c0 -5 -4 -9 -10 -9 -5 0 -10 7
-10 16 0 8 5 12 10 9 6 -3 10 -10 10 -16z m30 0 c0 -5 -4 -9 -10 -9 -5 0 -10
7 -10 16 0 8 5 12 10 9 6 -3 10 -10 10 -16z m-350 -54 c0 -34 1 -35 40 -35 38
0 40 2 40 30 0 17 5 30 10 30 6 0 10 -14 10 -31 0 -27 3 -30 27 -27 19 2 29
10 33 27 12 53 70 49 70 -5 0 -20 5 -24 31 -24 18 0 28 4 24 10 -9 15 3 47 21
54 29 11 55 -13 52 -47 l-3 -32 -175 -2 c-96 -1 -191 2 -210 6 -30 6 -35 11
-35 36 0 27 14 38 58 44 4 1 7 -15 7 -34z m110 -84 c0 -5 -11 -8 -25 -8 -14 0
-25 3 -25 8 0 5 11 9 25 9 14 0 25 -4 25 -9z"/>
<path d="M2837 776 c-7 -16 1 -26 20 -26 7 0 13 9 13 20 0 23 -25 27 -33 6z"/>
<path d="M3070 765 c0 -16 6 -25 15 -25 9 0 15 9 15 25 0 16 -6 25 -15 25 -9
0 -15 -9 -15 -25z"/>
<path d="M3196 774 c-8 -20 1 -34 20 -34 8 0 14 10 14 25 0 28 -24 34 -34 9z"/>
<path d="M2621 866 c-6 -7 -24 -16 -40 -19 -22 -5 -30 -13 -35 -38 -3 -17 -3
-35 0 -41 3 -5 -2 -15 -12 -23 -18 -12 -17 -14 6 -33 18 -14 34 -18 61 -15 28
4 47 0 74 -17 29 -18 38 -20 51 -9 8 7 13 21 11 31 -3 10 -1 18 4 18 18 0 10
76 -10 94 -17 16 -20 16 -35 1 -9 -9 -17 -13 -18 -8 0 4 -2 13 -2 18 -3 18
-26 55 -35 55 -5 0 -14 -6 -20 -14z m29 -72 c0 -54 0 -55 28 -52 23 3 27 7 24
31 -3 19 1 27 12 27 17 0 22 -45 8 -66 -9 -14 -172 -17 -172 -3 0 5 9 9 19 9
17 0 18 4 10 41 -9 39 -6 59 7 46 3 -3 8 -24 11 -46 4 -25 11 -41 19 -41 10 0
14 15 14 55 0 30 5 55 10 55 6 0 10 -25 10 -56z m70 -105 c0 -5 -4 -9 -10 -9
-5 0 -10 7 -10 16 0 8 5 12 10 9 6 -3 10 -10 10 -16z"/>
<path d="M3571 844 c-21 -24 -24 -25 -40 -10 -20 18 -57 21 -66 6 -4 -6 -11
-8 -16 -5 -5 4 -9 1 -9 -5 0 -6 -4 -9 -9 -6 -5 4 -17 -14 -27 -39 -13 -35 -14
-51 -6 -68 6 -12 11 -16 11 -8 1 9 5 10 14 3 6 -5 35 -13 63 -17 39 -5 55 -3
66 9 9 8 18 12 21 9 12 -11 92 -21 102 -13 6 5 17 5 25 0 7 -4 24 -4 38 1 13
5 28 6 34 3 14 -9 225 -12 239 -3 22 13 -10 19 -120 20 -61 0 -111 5 -111 10
0 5 14 9 30 9 17 0 30 3 30 6 0 16 -23 44 -35 44 -8 0 -15 5 -15 11 0 6 10 9
21 7 22 -3 32 -16 43 -50 4 -15 17 -18 66 -18 44 0 60 4 60 14 0 20 -25 37
-44 30 -9 -3 -16 -1 -16 5 0 18 26 24 48 12 11 -6 26 -27 32 -46 6 -19 16 -35
21 -35 17 0 5 55 -18 83 -13 16 -23 34 -23 42 0 15 -27 28 -41 19 -5 -3 -9
-12 -9 -20 0 -8 -5 -14 -11 -14 -5 0 -7 -5 -4 -10 3 -6 -1 -13 -9 -16 -9 -3
-16 -10 -16 -16 0 -5 5 -6 10 -3 6 3 10 1 10 -4 0 -17 -26 -13 -41 6 -12 14
-12 16 1 9 8 -4 4 2 -10 13 -27 23 -77 22 -92 -2 -6 -9 -8 -9 -8 1 0 7 -4 10
-10 7 -5 -3 -10 -1 -10 4 0 16 -42 13 -68 -5 -12 -8 -19 -20 -16 -26 4 -7 2
-8 -4 -4 -7 4 -12 20 -12 35 0 28 -16 51 -35 51 -6 0 -22 -12 -34 -26z m39
-49 c0 -54 1 -55 29 -55 23 0 30 5 34 29 7 33 30 45 58 31 19 -11 25 -45 11
-67 -5 -8 -34 -12 -82 -11 l-75 1 3 63 c4 78 22 85 22 9z m346 28 c-10 -10
-19 5 -10 18 6 11 8 11 12 0 2 -7 1 -15 -2 -18z m-443 -9 c-4 -13 -46 -10 -50
3 -3 8 6 11 24 9 15 -2 27 -7 26 -12z m45 -51 l-3 -38 -65 0 -65 0 -3 33 c-2
18 1 32 7 32 6 0 11 -11 11 -25 0 -23 3 -25 50 -25 49 0 50 1 50 30 0 17 5 30
11 30 6 0 9 -16 7 -37z m-62 9 c-10 -2 -22 0 -28 6 -6 6 0 7 19 4 21 -5 23 -7
9 -10z"/>
<path d="M3694 776 c-7 -19 3 -36 22 -36 10 0 14 8 12 22 -4 26 -26 36 -34 14z"/>
<path d="M2140 832 c-8 -2 -23 -12 -33 -20 -16 -14 -19 -14 -30 2 -9 12 -23
17 -42 14 -26 -3 -30 -7 -29 -33 0 -16 -5 -34 -11 -40 -7 -5 -15 -18 -18 -28
-12 -32 78 -52 103 -22 15 18 31 10 24 -10 -4 -8 1 -18 10 -21 9 -3 14 -10 11
-14 -3 -5 3 -7 12 -5 10 2 26 4 35 4 9 1 19 9 23 20 5 17 16 18 131 17 140 -3
156 3 150 55 -6 50 -65 99 -93 77 -7 -6 -20 -7 -29 -4 -13 5 -14 3 -7 -6 7 -9
5 -21 -3 -38 -8 -14 -14 -19 -14 -13 0 20 -42 63 -61 63 -27 0 -50 -11 -43
-21 3 -5 0 -9 -7 -9 -7 0 -5 -6 5 -13 18 -13 18 -14 0 -21 -10 -4 -15 -4 -11
0 4 4 1 14 -7 23 -8 9 -15 20 -15 26 0 12 -32 23 -51 17z m-75 -38 c9 -9 15
-28 13 -43 -3 -22 -8 -26 -40 -29 -22 -2 -38 1 -38 7 0 6 14 11 30 11 17 0 30
4 30 9 0 21 -13 41 -26 41 -8 0 -14 5 -14 10 0 16 27 12 45 -6z m106 6 c14 -8
19 -21 19 -53 0 -24 -5 -48 -12 -55 -15 -15 -58 -16 -58 -2 0 6 11 10 25 10
14 0 25 5 25 10 0 6 -8 10 -18 10 -39 0 -55 45 -26 74 18 19 20 19 45 6z m113
-6 c9 -8 16 -24 16 -35 0 -17 7 -19 66 -19 56 0 65 2 60 16 -3 9 -6 20 -6 26
0 6 -10 8 -25 4 -27 -7 -35 8 -10 18 25 9 45 -4 60 -41 8 -20 15 -37 15 -39 0
-2 -54 -4 -120 -3 -66 0 -120 5 -120 10 0 5 14 9 30 9 24 0 30 4 30 21 0 12
-8 23 -20 26 -11 3 -20 9 -20 14 0 15 27 10 44 -7z"/>
<path d="M2137 784 c-16 -16 -7 -44 14 -44 15 0 20 5 17 22 -3 22 -19 33 -31
22z"/>
<path d="M4167 802 c-10 -2 -15 -8 -12 -13 4 -5 86 -8 188 -8 100 1 175 3 167
5 -22 6 -324 20 -343 16z"/>
<path d="M1590 789 c-53 -4 -40 -6 70 -9 74 -2 145 -2 158 -1 12 1 22 -4 22
-11 0 -10 -37 -13 -170 -11 -93 1 -172 -1 -174 -6 -6 -9 -16 -8 181 -16 143
-6 164 -5 169 9 3 9 10 13 15 10 5 -3 9 -1 9 3 0 5 -13 16 -29 26 -31 18 -106
20 -251 6z"/>
<path d="M4137 773 c-4 -3 -7 -11 -7 -16 0 -6 3 -7 7 -4 3 4 12 2 19 -4 8 -6
63 -10 141 -9 70 1 142 1 160 1 17 -1 34 3 38 9 4 7 -50 10 -164 10 -107 0
-171 4 -171 10 0 11 -13 13 -23 3z"/>
</g>
</svg>
