<svg version="1.2" xmlns="http://www.w3.org/2000/svg" viewBox="0 0 54 53" width="54" height="53">
	<style>
		.s0 { fill: #000000 } 
	</style>
	<path class="s0" d="m45.76 26.88c-0.05-3.64-1.13-7.2-3.13-10.24-2-3.05-4.83-5.46-8.15-6.96-3.32-1.49-7-2.01-10.61-1.48-3.6 0.53-6.98 2.07-9.74 4.46-2.75 2.38-4.77 5.5-5.81 8.99-1.04 3.5-1.06 7.21-0.06 10.71 1 3.51 2.98 6.65 5.7 9.07 2.73 2.41 6.09 4 9.69 4.57v-13.55h-4.78v-5.57h4.78v-4.23c-0.11-0.98 0-1.98 0.31-2.91 0.32-0.94 0.84-1.8 1.52-2.51 0.68-0.72 1.52-1.28 2.44-1.64 0.92-0.35 1.91-0.51 2.9-0.44q2.15 0.03 4.28 0.38v4.78h-2.39q-0.63-0.08-1.23 0.12-0.59 0.2-1.05 0.64-0.45 0.44-0.67 1.03-0.22 0.59-0.16 1.22v3.61h5.31l-0.86 5.57h-4.43v13.38c4.52-0.71 8.63-3.02 11.59-6.51 2.96-3.48 4.57-7.92 4.55-12.49z"/>
</svg>